<?xml version="1.0" standalone="no"?>
<!DOCTYPE svg PUBLIC "-//W3C//DTD SVG 20010904//EN"
 "http://www.w3.org/TR/2001/REC-SVG-20010904/DTD/svg10.dtd">
<svg version="1.0" xmlns="http://www.w3.org/2000/svg"
 width="1024.000000pt" height="1024.000000pt" viewBox="0 0 1024.000000 1024.000000"
 preserveAspectRatio="xMidYMid meet">
<metadata>
Created by potrace 1.11, written by Peter Selinger 2001-2013
</metadata>
<g transform="translate(0.000000,1024.000000) scale(0.100000,-0.100000)"
fill="#000000" stroke="none">
<path d="M4867 10194 c-1 -1 -55 -5 -119 -8 -65 -4 -128 -9 -140 -11 -12 -3
-44 -7 -72 -10 -28 -3 -67 -7 -86 -10 -19 -3 -51 -7 -70 -10 -37 -4 -251 -41
-285 -49 -11 -3 -51 -12 -90 -20 -38 -9 -81 -19 -95 -22 -14 -2 -65 -16 -115
-30 -49 -15 -94 -27 -100 -28 -42 -10 -103 -28 -115 -35 -8 -4 -41 -16 -73
-25 -32 -9 -70 -22 -85 -28 -15 -6 -29 -12 -32 -13 -52 -18 -261 -101 -310
-123 -232 -105 -440 -215 -635 -335 -40 -25 -294 -196 -307 -206 -7 -6 -44
-35 -83 -63 -38 -28 -72 -54 -75 -57 -3 -4 -21 -18 -40 -32 -19 -15 -47 -38
-62 -52 -15 -14 -38 -32 -50 -41 -59 -41 -375 -348 -480 -467 -52 -59 -66 -75
-116 -134 -10 -11 -44 -54 -77 -95 -33 -41 -64 -79 -68 -85 -189 -235 -470
-704 -597 -995 -18 -41 -40 -93 -50 -115 -79 -179 -218 -593 -246 -732 -2 -12
-15 -69 -29 -125 -23 -98 -26 -116 -40 -198 -3 -19 -8 -42 -10 -50 -2 -8 -7
-33 -10 -55 -3 -23 -7 -50 -9 -61 -2 -12 -7 -45 -11 -75 -3 -30 -8 -65 -10
-79 -2 -14 -6 -56 -10 -94 -3 -38 -8 -73 -11 -78 -3 -4 0 -8 7 -8 7 0 8 -4 2
-12 -26 -35 -24 -683 2 -913 3 -22 7 -60 9 -85 8 -70 16 -125 37 -250 38 -221
42 -239 48 -236 3 2 7 -10 7 -27 6 -118 154 -590 275 -874 102 -239 336 -683
360 -683 6 0 8 -4 5 -8 -4 -6 117 -197 156 -247 4 -5 34 -47 67 -91 33 -45 66
-90 75 -100 8 -11 37 -46 63 -79 26 -33 53 -65 58 -71 6 -6 28 -32 50 -59 79
-96 265 -287 415 -429 80 -74 237 -206 335 -281 33 -25 71 -54 85 -65 80 -64
341 -231 351 -224 7 4 9 3 6 -4 -4 -6 16 -23 45 -40 29 -16 69 -39 88 -50 l35
-21 0 79 c0 45 -3 76 -9 73 -5 -4 -6 0 -1 8 13 19 14 160 2 152 -6 -4 -7 -1
-2 8 13 19 14 160 2 152 -6 -4 -7 -1 -2 8 13 19 14 160 2 152 -6 -4 -7 -1 -2
8 13 19 14 160 2 152 -6 -4 -7 -1 -2 8 13 19 14 160 2 152 -6 -4 -7 -1 -2 8
13 19 14 160 2 152 -6 -4 -7 -1 -2 8 13 19 14 160 2 152 -6 -4 -7 -1 -2 8 13
19 14 160 2 152 -6 -4 -7 -1 -2 8 13 19 14 160 2 152 -6 -4 -7 -1 -2 8 12 19
14 160 2 152 -5 -3 -6 2 0 13 5 11 9 401 8 916 -1 616 2 898 10 901 9 3 1065
1 1122 -2 13 -1 32 -15 46 -36 13 -19 27 -32 32 -27 5 4 5 2 2 -5 -14 -24 166
-220 298 -324 100 -78 186 -131 298 -184 54 -26 104 -48 110 -49 7 -2 19 -6
27 -9 44 -19 156 -50 249 -69 146 -29 440 -31 564 -3 12 3 33 7 47 9 14 2 45
9 70 16 25 7 47 12 50 12 17 0 188 68 263 105 218 107 418 275 569 479 l66 88
494 1 c271 1 496 0 500 -2 3 -2 -5 -31 -19 -66 -28 -70 -125 -279 -133 -287
-3 -3 -14 -21 -24 -40 -33 -61 -145 -227 -192 -285 -25 -30 -42 -60 -39 -65 4
-6 3 -9 -2 -8 -4 2 -73 -63 -153 -143 -80 -80 -161 -157 -180 -172 -19 -15
-60 -46 -90 -69 -30 -23 -56 -45 -58 -50 -2 -4 -8 -8 -14 -8 -5 0 -24 -11 -41
-24 -97 -72 -439 -249 -506 -262 -31 -6 -70 -27 -65 -35 3 -5 -1 -6 -9 -3 -8
3 -52 -6 -98 -20 -46 -14 -112 -31 -146 -37 -34 -7 -60 -15 -58 -18 2 -3 -11
-7 -28 -7 -30 -1 -62 -6 -132 -18 -49 -8 -162 -17 -283 -21 -62 -2 -117 -7
-122 -10 -6 -3 -10 -2 -10 3 0 11 -40 10 -59 -2 -10 -6 -12 -5 -7 2 5 8 -1 11
-16 11 -48 -3 -277 28 -372 51 -22 5 -44 7 -48 4 -4 -3 -8 -1 -8 3 0 5 -24 14
-52 21 -65 16 -69 18 -88 25 -58 22 -140 45 -140 39 0 -4 -4 -2 -8 4 -4 5 -38
23 -77 39 -38 16 -116 53 -172 82 -57 28 -103 49 -103 45 0 -4 -4 -1 -9 7 -5
7 -36 30 -69 50 -50 30 -130 84 -261 179 -17 12 -18 -58 -18 -1442 l0 -1454
56 -18 c31 -10 65 -19 76 -21 11 -2 29 -7 40 -13 27 -13 258 -70 295 -73 16
-1 30 -5 30 -8 0 -4 21 -10 48 -15 26 -4 49 -8 52 -9 3 0 27 -4 53 -9 27 -4
59 -9 70 -12 12 -2 37 -6 56 -9 18 -2 41 -7 50 -9 9 -3 43 -8 75 -11 33 -3 63
-8 68 -11 4 -3 8 1 8 8 0 9 2 10 8 2 7 -12 49 -17 237 -31 50 -4 205 -7 345
-7 282 -1 431 7 597 29 18 3 57 7 85 10 29 3 62 8 74 10 12 3 39 7 60 10 78
11 260 46 290 56 17 5 44 11 60 13 79 11 492 135 619 186 17 7 39 16 50 20 48
18 132 53 158 66 16 8 33 14 38 14 22 0 379 181 379 192 0 6 3 8 6 5 11 -11
104 45 104 62 0 11 3 12 8 4 5 -9 21 -3 57 19 28 17 66 41 85 53 91 57 269
174 286 188 10 9 57 44 104 78 47 34 94 70 105 80 11 10 54 45 95 79 258 212
575 540 767 795 12 17 41 53 63 82 22 29 40 55 40 58 0 4 7 13 16 22 23 24
134 191 134 203 0 5 3 10 8 10 6 0 20 20 57 85 7 11 21 36 32 55 11 19 34 59
52 88 17 29 31 57 31 61 0 5 7 14 15 21 9 7 13 15 10 18 -3 3 2 14 12 24 9 10
12 18 7 18 -5 0 -4 4 3 8 12 8 123 233 168 342 14 36 33 80 41 98 9 18 24 56
34 85 10 29 33 90 50 137 18 47 36 99 40 115 4 17 17 57 28 90 17 49 84 302
97 365 2 8 8 35 13 60 6 25 14 65 17 90 4 24 8 47 10 50 2 3 6 24 9 46 4 22 8
49 10 59 12 66 19 112 31 220 14 127 16 156 20 238 2 48 6 91 9 95 5 9 -2 598
-9 662 -2 25 -7 70 -10 100 -2 30 -7 75 -11 100 -3 25 -7 61 -10 80 -9 74 -15
116 -19 130 -2 8 -6 31 -9 50 -21 130 -78 390 -85 386 -3 -2 -7 8 -7 22 -1 15
-4 36 -7 47 -4 11 -11 36 -16 55 -23 86 -63 213 -96 305 -20 55 -40 112 -45
126 -4 15 -15 42 -23 60 -8 19 -25 61 -38 94 -13 33 -28 63 -34 67 -5 4 -6 8
-2 8 5 0 1 12 -7 28 -9 15 -41 81 -71 146 -62 131 -174 339 -187 344 -4 2 -8
9 -8 15 0 39 -419 640 -456 654 -8 3 -14 10 -14 16 0 6 -26 40 -58 76 -32 36
-69 78 -82 93 -13 15 -28 25 -33 21 -6 -3 -7 -2 -4 4 11 18 -328 350 -488 478
-28 21 -52 42 -55 45 -3 3 -34 28 -70 55 -36 28 -67 52 -70 55 -22 24 -326
230 -340 230 -5 0 -10 4 -12 8 -4 11 -123 82 -137 82 -6 0 -11 3 -11 8 0 13
-60 42 -61 29 -1 -7 -2 -813 -3 -1792 l-1 -1780 -565 0 c-311 -1 -573 3 -582
7 -10 5 -24 21 -32 36 -8 15 -26 40 -40 56 -14 16 -26 32 -26 36 0 12 -195
207 -252 253 -114 91 -251 173 -270 161 -6 -4 -8 -3 -5 3 4 6 -16 21 -46 35
-54 26 -188 78 -210 82 -6 2 -30 8 -53 14 -115 33 -229 46 -404 46 -149 1
-221 -6 -320 -28 -14 -3 -36 -8 -50 -11 -58 -11 -120 -29 -120 -35 0 -3 -9 -6
-20 -7 -28 -2 -213 -82 -225 -97 -5 -7 -15 -11 -22 -9 -6 2 -18 -6 -27 -19 -9
-12 -16 -19 -16 -15 0 26 -192 -118 -302 -225 -53 -51 -128 -136 -167 -188
l-71 -95 -500 0 c-441 0 -499 2 -494 15 3 8 13 35 22 60 47 130 221 442 309
555 13 17 27 35 31 40 85 114 233 270 344 365 21 18 35 37 31 43 -4 6 -1 7 6
2 8 -4 23 3 39 17 127 115 446 299 652 377 55 21 97 41 92 46 -4 5 -2 5 4 2 6
-4 42 3 80 14 126 36 244 62 354 79 125 18 176 22 317 25 79 2 147 6 153 10 5
3 10 2 10 -3 0 -5 24 -9 53 -10 28 0 63 -3 77 -5 14 -3 52 -8 85 -12 33 -3 69
-8 80 -11 11 -2 31 -6 45 -8 28 -5 130 -26 145 -30 339 -88 625 -225 930 -448
l51 -37 2 1448 2 1447 -48 17 c-107 37 -425 119 -557 143 -11 2 -36 6 -55 10
-161 30 -321 49 -331 40 -9 -8 -10 -8 -5 2 5 9 -3 12 -31 13 -21 0 -47 2 -58
4 -11 2 -66 7 -123 11 -57 3 -117 7 -135 8 -18 2 -38 -2 -46 -8 -11 -8 -13 -8
-8 1 6 10 -42 12 -213 11 -121 -1 -222 -3 -223 -4z m503 -958 c63 -4 126 -8
140 -10 14 -2 54 -6 90 -10 36 -4 76 -9 90 -12 14 -2 39 -6 55 -8 86 -11 226
-40 355 -72 172 -42 161 -40 180 -46 8 -3 69 -23 135 -44 l120 -39 3 -107 3
-106 -78 28 c-43 15 -85 30 -93 33 -60 22 -270 81 -322 91 -15 2 -31 7 -36 9
-4 3 -27 8 -52 12 -25 4 -47 8 -50 10 -3 2 -48 10 -100 19 -131 23 -138 24
-200 31 -30 3 -68 7 -85 10 -44 6 -248 17 -342 19 -53 2 -83 -2 -83 -8 0 -8
-3 -8 -8 -1 -4 6 -20 11 -37 11 -16 0 -33 -5 -37 -11 -5 -7 -8 -7 -8 1 0 6
-15 9 -32 8 -18 -1 -76 -5 -128 -8 -52 -4 -108 -8 -125 -10 -16 -2 -57 -7 -90
-11 -164 -17 -402 -66 -625 -128 -58 -16 -219 -72 -305 -105 -83 -32 -153 -61
-172 -70 -10 -5 -64 -31 -120 -57 -56 -27 -99 -53 -96 -58 3 -6 1 -7 -5 -3 -6
4 -37 -8 -69 -25 -32 -18 -67 -37 -78 -43 -11 -6 -22 -13 -25 -16 -3 -3 -21
-14 -40 -24 -67 -37 -290 -189 -290 -197 0 -5 -4 -9 -10 -9 -14 0 -100 -67
-94 -74 2 -3 1 -4 -3 -1 -18 14 -373 -311 -503 -462 -19 -22 -57 -66 -85 -98
-27 -32 -82 -101 -122 -154 -40 -53 -77 -101 -83 -108 -5 -7 -10 -16 -10 -22
0 -5 -4 -11 -8 -13 -12 -4 -87 -121 -84 -130 1 -5 -2 -8 -7 -8 -14 0 -42 -60
-34 -73 3 -5 1 -7 -5 -3 -12 7 -40 -42 -147 -249 -68 -134 -150 -319 -150
-340 0 -5 -2 -12 -5 -15 -14 -13 -61 -152 -56 -166 3 -8 2 -13 -2 -10 -9 5
-41 -96 -86 -269 l-31 -119 -90 -1 c-49 -1 -95 1 -101 2 -7 3 -5 27 8 76 10
40 20 83 23 97 5 28 60 220 75 260 5 14 23 66 40 115 17 50 40 109 51 132 10
24 19 45 19 47 0 3 5 17 12 33 6 15 12 30 13 33 0 3 11 25 24 48 12 24 20 50
17 58 -3 8 -2 13 2 10 4 -2 30 39 57 92 67 132 135 253 153 275 8 9 11 17 6
17 -5 0 -4 4 1 8 6 4 44 58 85 121 65 100 124 182 212 295 13 16 37 45 55 65
17 19 29 40 26 46 -4 5 -3 7 1 3 4 -4 22 10 39 30 77 89 324 342 335 342 3 0
45 37 114 103 16 15 31 27 33 27 3 0 42 30 87 66 91 72 100 79 144 110 107 75
165 114 168 114 3 0 24 13 48 29 37 25 65 41 163 96 57 31 84 53 77 60 -4 5
-2 5 4 2 7 -4 78 25 158 63 80 39 150 70 156 70 5 0 10 5 10 11 0 5 4 8 8 5 4
-2 21 1 37 9 17 7 64 26 105 41 41 16 77 31 80 34 3 3 12 6 20 6 8 1 62 18
121 37 58 19 148 45 201 58 53 13 94 28 91 33 -3 5 -1 6 6 2 7 -4 44 -1 84 8
64 13 103 21 222 40 45 8 94 15 150 22 71 8 90 11 90 13 0 1 60 4 134 7 74 2
136 6 137 7 5 4 262 -1 374 -7z m-311 -359 c-3 -25 2 -37 26 -62 48 -47 121
-27 149 40 l14 33 74 -4 c117 -7 142 -11 147 -25 2 -8 17 -26 32 -41 38 -39
81 -37 122 3 l31 31 100 -17 c56 -9 124 -22 151 -30 28 -7 89 -21 137 -30 l87
-18 -19 -28 c-64 -88 47 -192 130 -122 17 13 28 29 25 33 -3 5 -1 11 4 14 5 4
7 18 5 32 -4 22 -2 25 13 19 10 -4 43 -15 73 -25 30 -10 82 -29 115 -42 l60
-24 3 -143 c2 -120 0 -147 -13 -161 -24 -26 -25 -71 -4 -108 26 -45 28 -269 3
-307 -9 -14 -14 -32 -10 -40 4 -10 2 -14 -6 -9 -15 10 -1 -46 18 -67 11 -12
14 -48 14 -149 0 -112 -3 -136 -17 -153 -21 -22 -22 -89 -2 -114 11 -15 10
-15 -9 1 -24 21 -33 26 -113 70 -95 52 -172 89 -254 122 l-80 33 -2 42 c-2 54
-28 81 -83 86 -37 4 -45 0 -73 -29 l-31 -33 -110 28 c-60 15 -121 29 -135 32
-53 10 -167 28 -196 30 -16 2 -34 3 -39 4 -5 0 3 11 18 22 15 12 25 24 22 27
-3 3 -2 10 3 16 10 13 -4 64 -25 91 -11 15 -27 20 -60 20 -38 0 -50 -5 -71
-29 -21 -25 -24 -37 -20 -70 3 -22 11 -42 16 -44 6 -2 11 -8 11 -13 0 -5 -50
-7 -112 -5 -62 2 -122 0 -134 -5 -27 -10 -56 7 -35 20 8 5 11 16 8 26 -5 10
-3 14 5 9 8 -5 9 4 5 31 -7 44 -47 85 -83 85 -58 0 -107 -55 -97 -109 5 -29
22 -53 32 -46 4 2 8 -2 8 -10 0 -10 -12 -15 -36 -16 -72 -2 -234 -30 -359 -60
l-82 -21 -32 27 c-27 23 -39 26 -71 22 -46 -6 -77 -33 -81 -68 -4 -37 -13 -47
-56 -60 -22 -7 -40 -17 -40 -22 0 -6 -3 -8 -6 -5 -3 4 -22 -1 -42 -9 -58 -24
-256 -123 -266 -134 -18 -17 -33 -9 -33 18 0 43 -51 79 -103 74 -76 -8 -104
-108 -44 -159 27 -24 27 -25 8 -38 -10 -7 -24 -18 -31 -24 -7 -5 -17 -10 -22
-10 -6 0 -15 -8 -20 -17 -10 -17 -10 -17 -11 -1 0 18 -27 37 -62 43 -35 7 -85
-20 -93 -51 -10 -36 -7 -75 8 -92 6 -8 6 -16 1 -20 -5 -4 -23 -20 -40 -35 -27
-25 -33 -26 -62 -16 -67 23 -122 -16 -122 -87 0 -25 5 -44 13 -47 7 -3 -4 -21
-30 -48 -34 -34 -45 -41 -55 -31 -7 7 -28 12 -47 12 -60 -1 -91 -38 -86 -104
1 -24 9 -42 19 -48 14 -8 13 -13 -11 -46 -15 -20 -30 -41 -35 -46 -4 -6 -17
-1 -31 12 -39 37 -125 26 -142 -17 -13 -32 -17 -73 -6 -67 6 4 9 1 5 -7 -8
-21 28 -59 57 -60 l26 -2 -30 -50 c-45 -76 -145 -277 -149 -300 -1 -11 -9 -26
-15 -33 -7 -7 -13 -23 -13 -34 0 -11 -8 -22 -20 -25 -11 -3 -17 -9 -14 -14 3
-5 -2 -6 -10 -3 -15 6 -46 -31 -50 -63 -2 -15 -16 -17 -114 -18 l-112 0 -11
33 c-28 84 -135 87 -171 4 l-16 -37 -98 1 c-55 1 -104 2 -111 3 -6 0 -16 16
-23 35 -14 43 -59 68 -102 55 -40 -11 -55 -25 -67 -62 l-11 -32 -98 1 c-53 1
-102 2 -109 3 -6 1 -21 20 -32 44 l-21 43 21 80 c11 43 27 99 36 124 8 25 16
50 17 55 2 6 7 21 13 35 5 14 20 54 32 90 20 55 27 65 48 66 39 3 73 41 73 84
0 19 -6 45 -14 56 -13 18 -11 26 14 79 16 33 29 55 29 48 1 -7 12 -24 26 -38
37 -36 87 -34 127 5 26 27 30 36 25 67 -8 49 -42 83 -84 83 -18 0 -33 2 -33 5
0 19 188 333 216 362 7 7 22 28 33 47 12 19 28 36 36 40 15 5 61 85 57 99 -1
5 2 6 8 2 5 -3 10 -3 10 2 0 4 16 27 36 51 24 28 45 42 61 42 27 0 72 40 74
67 1 10 3 28 4 39 3 26 80 98 106 100 11 1 26 2 34 3 26 2 62 49 63 82 0 16 5
36 11 43 6 7 7 17 3 21 -4 5 -2 5 4 2 6 -4 26 7 44 24 20 19 45 32 68 35 39 5
82 44 82 76 0 17 9 28 56 63 14 11 31 25 38 30 6 6 19 15 28 20 40 25 137 96
150 108 8 8 24 18 36 21 12 4 22 12 22 17 0 5 4 9 10 9 5 0 40 19 77 43 38 23
94 56 125 72 31 16 54 34 51 40 -4 5 -3 7 2 3 4 -4 16 -3 26 3 18 9 24 3 20
-23 0 -3 12 -20 28 -37 60 -64 155 -28 155 58 0 23 -7 46 -17 56 -9 9 -17 19
-17 21 0 14 113 55 135 50 31 -8 67 7 97 39 17 18 62 39 142 66 65 21 120 39
122 39 2 0 -1 -8 -7 -18 -16 -25 -4 -85 21 -107 27 -25 96 -24 122 2 30 31 35
92 8 126 -12 15 -27 24 -33 21 -8 -5 -9 -3 -2 4 6 6 26 14 45 17 19 3 44 8 55
12 11 3 35 5 54 5 19 -1 48 5 65 13 17 8 47 17 66 20 19 3 58 10 85 15 102 19
135 20 135 6 0 -17 35 -48 43 -39 4 3 7 1 7 -5 0 -13 31 -15 66 -6 12 3 31 23
43 44 24 43 25 43 179 47 50 1 72 -2 71 -10z m2817 -695 c119 -105 348 -341
392 -404 7 -10 18 -15 24 -12 7 4 8 2 4 -4 -6 -10 1 -21 48 -75 30 -35 186
-246 186 -252 0 -3 5 -11 10 -18 68 -77 273 -451 370 -672 59 -136 160 -423
186 -530 1 -5 14 -55 28 -110 39 -150 43 -141 -68 -140 -52 0 -97 3 -100 5 -3
3 -7 18 -10 33 -3 15 -8 39 -12 54 -3 15 -7 30 -10 35 -3 4 -7 17 -9 27 -15
76 -89 307 -145 446 -80 201 -222 484 -309 615 -23 34 -41 63 -41 65 0 10 -53
80 -59 78 -4 -1 -8 4 -8 10 0 17 -53 97 -64 97 -5 0 -9 6 -9 13 0 7 -13 27
-30 45 -16 18 -30 36 -30 39 0 18 -223 267 -355 396 l-100 98 0 129 c-1 115 1
128 15 117 8 -7 51 -45 96 -85z m-22 -471 c16 -17 33 -28 38 -25 5 3 7 1 6 -4
-3 -10 42 -69 100 -131 47 -50 196 -249 264 -351 89 -134 188 -310 176 -310
-24 0 -68 -53 -68 -81 0 -79 64 -118 140 -85 20 8 61 -72 66 -128 2 -22 12
-49 23 -60 10 -12 23 -30 29 -41 10 -20 82 -219 82 -226 0 -2 -20 -4 -43 -4
-89 -1 -122 -90 -57 -155 27 -27 90 -27 115 0 17 19 20 19 28 4 16 -29 34
-122 26 -136 -6 -10 -32 -13 -111 -12 -127 2 -118 0 -118 22 0 52 -88 94 -132
64 -31 -22 -47 -43 -48 -64 0 -21 10 -20 -122 -22 l-108 -1 -5 26 c-11 47 -51
74 -108 70 -24 -1 -77 -58 -71 -75 3 -7 -1 -15 -8 -18 -11 -3 -160 -3 -178 1
-3 1 -6 34 -5 75 0 71 1 73 20 60 24 -17 84 -18 106 -1 47 36 51 97 10 138
-33 32 -67 37 -109 15 l-27 -14 0 137 c0 75 2 137 5 139 3 2 18 -1 33 -7 61
-24 127 20 127 85 0 33 -38 83 -65 85 -8 1 -21 2 -27 3 -7 1 -25 -4 -40 -11
-16 -7 -29 -12 -29 -11 -1 2 -2 66 -3 143 l-2 141 34 -18 c33 -17 46 -16 89 4
45 22 54 106 15 141 -9 8 -27 18 -40 22 -26 7 -85 -3 -78 -14 3 -4 -2 -8 -10
-8 -8 0 -13 6 -10 13 3 8 1 16 -5 19 -5 4 -6 12 -2 18 11 17 10 91 -2 99 -7 5
-6 8 1 8 6 0 10 27 9 69 l-1 69 24 -19 c37 -28 77 -24 112 11 62 63 16 159
-73 152 -17 -2 -38 -9 -47 -17 -14 -13 -15 0 -15 134 l0 147 30 -18 c17 -9 44
-31 59 -47z m-6571 -3441 c4 -5 34 -118 43 -160 2 -14 8 -36 13 -50 5 -14 21
-67 37 -117 16 -51 32 -93 37 -93 4 0 6 -4 3 -8 -11 -18 83 -250 180 -447 88
-179 133 -260 185 -339 21 -32 39 -60 39 -63 0 -8 123 -178 134 -185 6 -4 7
-8 3 -8 -7 0 8 -20 116 -155 102 -127 168 -195 180 -188 6 4 7 1 3 -6 -5 -8
33 -52 107 -124 l114 -112 1 -128 1 -129 -22 19 c-11 10 -37 32 -56 48 -20 17
-70 63 -112 103 -41 39 -79 69 -84 65 -4 -5 -5 -3 -2 3 4 6 -13 29 -36 51 -52
49 -128 132 -187 204 -24 30 -52 63 -61 74 -49 56 -109 136 -109 144 0 5 -4
11 -8 13 -11 4 -132 176 -132 187 0 4 -9 16 -20 26 -11 10 -20 22 -20 27 0 5
-14 29 -30 53 -16 24 -30 46 -30 48 0 2 -23 44 -51 93 -101 175 -241 486 -301
672 -8 23 -18 39 -23 35 -4 -5 -6 -3 -2 2 3 6 -12 74 -34 150 -21 77 -41 149
-44 160 -2 11 -9 38 -14 60 -21 82 -23 80 84 80 51 -1 96 -3 98 -5z m457 -7
c0 -6 14 -23 32 -38 43 -36 91 -30 133 18 l30 34 109 -2 c73 -1 111 -5 114
-13 2 -7 12 -22 22 -34 27 -34 100 -32 129 2 11 14 25 30 30 36 7 8 75 11 133
5 4 -1 6 -22 5 -48 -2 -43 -4 -47 -27 -48 -60 -1 -97 -50 -85 -113 7 -36 53
-72 91 -72 21 0 22 -5 21 -95 0 -52 3 -98 6 -102 12 -12 -15 -33 -42 -33 -31
0 -73 -39 -78 -72 -9 -58 33 -108 91 -108 22 0 22 -2 24 -115 1 -101 -1 -115
-16 -116 -40 -2 -58 -10 -81 -35 -47 -56 -2 -155 69 -149 l27 2 0 -118 -1
-119 -30 0 c-17 0 -39 -6 -48 -14 -19 -14 -38 -57 -38 -87 0 -32 53 -79 89
-79 29 0 37 -9 31 -35 -1 -5 -3 -52 -3 -104 l-2 -93 -36 -4 c-28 -2 -42 3 -59
21 -13 14 -27 22 -32 19 -5 -3 -8 -2 -7 3 1 4 -1 15 -5 24 -4 9 -5 29 -3 45 8
56 -32 95 -99 98 -27 1 -104 92 -104 123 0 29 -44 79 -75 87 -14 4 -23 10 -21
15 3 5 -5 20 -19 35 -13 14 -22 26 -19 26 3 0 -15 28 -38 63 -41 58 -125 202
-162 275 l-17 33 41 -6 c36 -5 44 -3 70 24 70 70 4 179 -89 147 -21 -7 -40
-23 -51 -44 l-18 -32 -29 62 c-27 57 -28 63 -14 80 51 59 14 144 -66 150 -18
1 -29 8 -30 17 -1 9 -11 43 -23 76 -23 65 -87 269 -100 323 -7 28 -4 37 16 59
13 14 24 29 24 32 0 3 52 6 115 6 81 0 115 -3 115 -12z m6192 7 c2 -3 8 -14
14 -25 6 -11 22 -26 36 -34 35 -20 97 -2 120 36 16 27 17 27 128 28 111 0 112
0 126 -26 34 -66 145 -59 166 10 3 12 28 15 121 16 113 0 116 0 127 -24 9 -19
7 -41 -7 -98 -18 -75 -27 -90 -30 -51 -2 27 -41 67 -72 73 -42 8 -88 -19 -101
-60 -16 -47 -1 -85 43 -108 38 -20 71 -16 104 14 12 13 23 20 23 17 0 -4 -18
-59 -41 -125 -22 -65 -43 -126 -46 -135 -3 -10 -13 -18 -22 -18 -21 0 -71 -56
-71 -81 0 -10 5 -30 12 -44 9 -21 8 -32 -5 -61 -10 -19 -14 -40 -11 -46 4 -7
2 -8 -4 -4 -7 4 -12 0 -12 -10 0 -13 -5 -11 -26 10 -53 52 -144 28 -157 -42
-11 -57 27 -102 95 -114 15 -3 13 -9 -12 -50 -17 -27 -27 -48 -23 -48 5 0 3
-4 -3 -8 -6 -4 -26 -34 -44 -67 -50 -89 -149 -235 -184 -272 -16 -18 -26 -33
-20 -33 5 0 4 -4 -1 -8 -6 -4 -22 -23 -35 -42 -25 -35 -42 -57 -77 -95 -10
-11 -29 -22 -43 -24 -33 -4 -70 -49 -70 -86 -1 -43 -76 -121 -116 -119 -33 1
-74 -22 -74 -42 0 -8 -4 -14 -9 -14 -4 0 -7 -12 -7 -27 2 -42 -77 -123 -120
-123 -44 0 -91 -45 -85 -83 3 -22 -336 -273 -441 -326 -16 -8 -28 -18 -28 -23
0 -5 -4 -7 -9 -3 -5 3 -12 1 -15 -4 -6 -9 -120 -71 -131 -71 -3 0 -5 8 -5 18
0 18 -33 61 -48 63 -4 0 -18 3 -32 5 -68 11 -119 -70 -86 -134 20 -38 20 -42
0 -42 -9 0 -12 -5 -8 -12 4 -7 3 -8 -4 -4 -6 4 -24 0 -40 -8 -18 -9 -43 -13
-69 -9 -38 5 -44 2 -88 -41 -26 -26 -49 -45 -51 -43 -3 2 -46 -11 -97 -29 -99
-36 -129 -42 -109 -22 15 15 15 78 -1 99 -36 46 -101 52 -140 11 -38 -40 -37
-90 3 -129 l30 -29 -64 -17 c-42 -11 -73 -14 -88 -9 -28 11 -61 3 -88 -20 -11
-10 -32 -20 -47 -23 -16 -2 -53 -9 -83 -15 -125 -24 -126 -24 -139 8 -17 40
-64 63 -105 51 -36 -11 -65 -44 -66 -76 0 -15 -6 -23 -17 -24 -10 0 -27 -2
-38 -4 -11 -3 -56 -6 -101 -9 l-80 -4 -1 33 c-3 111 -169 115 -178 4 -2 -26
-8 -35 -29 -40 -14 -4 -24 -4 -22 0 2 3 -31 7 -74 7 -44 1 -86 4 -93 7 -8 3
-17 21 -21 40 -16 87 -155 92 -172 7 -4 -16 -11 -27 -18 -25 -6 2 -33 6 -61 9
-68 7 -154 24 -168 33 -7 4 -18 15 -25 24 -16 23 -48 28 -92 14 -29 -10 -48
-8 -115 11 -44 12 -68 23 -54 23 66 2 106 76 73 136 -37 70 -141 57 -163 -21
-10 -36 7 -86 36 -103 15 -9 13 -10 -12 -4 -16 3 -35 6 -42 6 -7 0 -13 3 -13
7 0 4 -19 12 -42 19 -124 36 -159 54 -172 86 -8 19 -26 37 -45 44 l-31 13 0
119 c0 117 0 119 24 125 32 8 60 39 52 59 -4 10 -2 14 5 9 19 -11 -1 59 -24
83 -11 13 -29 23 -39 23 -17 0 -18 9 -16 123 3 104 5 122 19 119 21 -3 59 39
65 72 7 42 -28 96 -66 99 -19 1 -20 8 -20 119 0 101 2 118 16 118 19 0 76 58
69 70 -12 19 17 20 44 1 15 -11 31 -18 35 -14 3 3 6 2 6 -3 0 -11 192 -105
322 -158 24 -9 38 -22 38 -33 1 -61 84 -89 145 -49 17 11 60 16 60 6 0 -10
349 -78 407 -79 14 -1 16 -8 11 -49 -5 -41 -2 -52 18 -75 63 -70 172 -15 155
78 l-6 31 130 1 c108 0 128 -2 119 -13 -15 -19 -3 -76 22 -102 45 -49 142 -19
152 48 3 14 -2 37 -10 52 -7 16 -12 28 -10 28 2 0 28 4 58 10 30 5 71 12 93
14 43 5 100 18 229 52 88 23 89 23 110 4 23 -22 22 -21 57 -25 32 -3 80 21 80
40 0 8 4 15 9 15 4 0 8 8 8 18 0 35 3 42 18 42 8 0 23 4 33 10 9 5 40 19 67
31 66 28 199 92 205 99 3 3 14 10 25 16 11 5 38 21 59 34 33 20 38 21 33 7 -8
-22 11 -67 37 -89 48 -40 130 -7 142 56 7 41 -7 71 -47 95 l-30 19 35 22 c20
12 36 26 36 31 0 4 20 -2 45 -15 39 -21 49 -23 81 -13 56 17 75 71 49 138 -4
11 5 27 25 48 34 34 45 36 85 21 51 -19 121 35 110 87 -2 10 -6 29 -10 43 -10
40 70 113 89 81 8 -12 66 -7 92 7 19 10 34 40 39 77 2 19 -18 54 -28 48 -6 -3
-7 -1 -3 5 3 6 2 13 -4 17 -5 3 6 27 28 56 33 44 38 48 45 31 17 -37 79 -53
120 -30 33 17 46 39 47 78 0 43 -39 90 -75 90 l-24 0 34 63 c52 93 118 230
118 245 0 6 4 12 9 12 4 0 8 8 8 18 0 10 4 22 9 28 5 5 14 26 20 46 9 26 17
35 27 31 18 -7 62 22 75 50 9 21 16 22 124 22 63 0 115 -3 117 -5z m1219 1
c16 -3 -137 -545 -164 -578 -5 -7 -6 -13 -2 -13 4 0 3 -6 -2 -12 -5 -7 -20
-40 -32 -73 -27 -70 -31 -79 -109 -245 -32 -69 -60 -129 -61 -135 -1 -5 -8
-17 -14 -25 -12 -15 -21 -30 -64 -109 -14 -25 -30 -51 -35 -58 -5 -7 -6 -18
-2 -25 4 -7 4 -10 -1 -6 -7 7 -55 -51 -55 -66 0 -10 -113 -172 -201 -287 -48
-65 -86 -120 -83 -123 2 -3 1 -4 -2 -2 -3 3 -38 -32 -77 -77 -106 -124 -225
-246 -382 -392 -31 -29 -98 -83 -118 -96 -5 -4 -7 -12 -3 -18 4 -6 2 -9 -6 -6
-7 3 -28 -8 -46 -25 -18 -16 -36 -30 -38 -30 -3 0 -13 -7 -21 -16 -34 -34
-260 -189 -370 -254 -29 -17 -53 -36 -53 -41 0 -6 -4 -8 -8 -5 -5 3 -24 -5
-43 -16 -19 -12 -90 -51 -159 -86 -69 -35 -127 -68 -128 -73 -2 -5 -8 -7 -13
-4 -5 3 -19 0 -31 -7 -13 -7 -25 -13 -28 -13 -3 -1 -23 -9 -45 -19 -71 -32
-279 -112 -308 -120 -15 -3 -26 -10 -23 -14 2 -4 -8 -8 -22 -8 -15 -1 -83 -18
-152 -38 -147 -43 -297 -78 -430 -100 -134 -21 -164 -25 -233 -32 -34 -3 -73
-7 -86 -9 -12 -2 -78 -7 -145 -11 -424 -25 -854 18 -1275 126 -62 17 -118 27
-124 23 -5 -3 -7 -1 -4 4 4 7 -9 14 -31 19 -41 8 -51 11 -54 13 -2 1 -39 14
-83 29 l-80 28 -3 106 -3 106 143 -49 c79 -27 150 -47 158 -44 8 4 11 3 7 -2
-15 -15 438 -121 468 -109 8 3 15 1 17 -4 2 -4 26 -11 53 -14 28 -3 75 -9 105
-13 30 -4 85 -8 122 -8 36 0 64 -2 63 -6 -2 -3 29 -6 68 -8 40 -1 86 -4 102
-5 17 -2 35 1 42 6 6 5 14 5 16 1 15 -24 592 13 608 38 5 8 8 8 13 0 4 -6 11
-9 16 -6 5 3 28 8 52 11 37 5 155 27 211 40 9 2 27 6 40 9 51 12 66 15 145 36
45 12 82 26 82 31 0 5 5 6 10 3 17 -11 390 119 390 135 0 3 9 6 19 7 23 2 319
146 406 198 33 20 68 39 78 42 9 3 17 9 17 14 0 5 4 9 10 9 11 0 137 79 161
101 8 8 26 20 39 28 27 15 187 135 232 173 15 13 44 37 65 53 101 81 299 276
408 401 97 112 120 140 203 249 93 123 172 247 165 259 -3 6 -3 8 2 4 7 -7 29
20 60 77 30 54 41 71 55 89 8 10 14 20 13 22 -4 6 10 38 18 44 11 8 149 297
149 313 0 7 5 18 11 24 6 6 12 17 13 24 1 8 10 32 20 54 23 52 101 284 122
360 9 33 25 96 37 140 11 44 24 83 29 86 6 4 160 4 189 0z"/>
<path d="M4482 8753 c-18 -9 -32 -22 -32 -29 0 -8 -4 -14 -8 -14 -10 0 -12
-25 -6 -62 6 -30 43 -58 82 -63 71 -8 120 74 84 138 -15 25 -25 31 -44 28 -5
0 -8 3 -8 7 0 14 -35 11 -68 -5z"/>
<path d="M4904 8759 c-73 -27 -71 -145 2 -169 41 -14 71 -5 102 27 63 68 -16
176 -104 142z"/>
<path d="M5301 8748 c-17 -11 -31 -25 -32 -31 0 -7 -2 -23 -5 -35 -6 -31 23
-78 56 -92 51 -21 115 16 123 70 6 37 -22 87 -52 96 -45 13 -58 12 -90 -8z"/>
<path d="M5721 8753 c-12 -8 -18 -19 -15 -25 4 -6 2 -8 -4 -4 -13 8 -19 -2
-26 -37 -2 -15 0 -27 5 -27 6 0 7 -5 4 -11 -4 -5 1 -19 12 -31 56 -62 148 -34
160 50 10 66 -82 124 -136 85z"/>
<path d="M3848 8532 c-72 -44 -34 -162 51 -162 46 1 77 25 88 70 21 81 -66
138 -139 92z"/>
<path d="M4264 8532 c-49 -39 -52 -102 -9 -139 75 -65 185 20 139 108 -25 50
-89 65 -130 31z"/>
<path d="M4684 8539 c-11 -6 -27 -23 -35 -37 -50 -91 71 -179 145 -106 73 74
-15 189 -110 143z"/>
<path d="M5086 8528 c-38 -34 -43 -83 -11 -124 22 -28 32 -34 65 -34 72 0 115
69 83 133 -25 49 -95 62 -137 25z"/>
<path d="M5515 8538 c-52 -30 -61 -97 -20 -142 28 -30 87 -35 119 -11 11 8 16
15 12 15 -4 0 0 7 8 16 26 25 20 72 -13 105 -31 31 -70 37 -106 17z"/>
<path d="M5917 8530 c-48 -38 -43 -125 10 -149 56 -26 107 -8 129 45 36 86
-65 162 -139 104z"/>
<path d="M6333 8531 c-35 -30 -45 -66 -29 -106 17 -39 42 -55 88 -55 41 0 63
13 53 30 -5 8 -4 11 3 6 6 -3 16 2 21 13 19 35 12 71 -18 102 -35 34 -84 38
-118 10z"/>
<path d="M3664 8339 c-12 -4 -31 -20 -43 -35 -66 -83 56 -191 134 -118 24 22
30 43 25 89 -4 43 -72 81 -116 64z"/>
<path d="M5308 8332 c-58 -40 -65 -96 -18 -143 57 -57 150 -20 150 60 0 49
-24 80 -72 90 -28 7 -43 5 -60 -7z"/>
<path d="M6144 8334 c-52 -27 -67 -74 -43 -128 12 -25 54 -46 93 -46 41 1 76
46 76 98 0 60 -72 103 -126 76z"/>
<path d="M3215 8315 c-43 -44 -32 -115 22 -143 58 -32 133 14 133 81 0 79 -98
118 -155 62z"/>
<path d="M4045 8315 c-30 -29 -35 -57 -20 -103 9 -26 53 -52 89 -52 37 0 77
39 82 81 12 83 -92 133 -151 74z"/>
<path d="M4469 8327 c-22 -17 -39 -51 -39 -80 0 -39 51 -87 93 -87 39 0 82 35
89 74 6 32 -15 82 -41 95 -26 15 -82 13 -102 -2z"/>
<path d="M4876 8319 c-14 -11 -24 -24 -21 -29 3 -5 1 -11 -4 -14 -5 -4 -8 -14
-6 -24 2 -9 4 -23 4 -30 2 -24 49 -58 84 -60 47 -3 87 31 93 79 11 80 -84 130
-150 78z"/>
<path d="M5717 8329 c-21 -12 -47 -60 -43 -80 17 -83 93 -117 151 -66 61 52
25 157 -53 157 -21 0 -45 -5 -55 -11z"/>
<path d="M3028 8122 c-35 -25 -47 -44 -48 -78 -1 -80 105 -120 157 -60 30 35
29 97 -1 125 -29 27 -79 33 -108 13z"/>
<path d="M3455 8130 c-109 -44 -52 -207 60 -170 35 12 65 51 65 85 0 57 -73
106 -125 85z"/>
<path d="M3862 8123 c-60 -29 -70 -98 -21 -144 27 -25 38 -29 67 -24 97 15
115 134 27 171 -41 17 -33 17 -73 -3z"/>
<path d="M4295 8131 c-48 -15 -77 -51 -70 -87 2 -10 4 -24 4 -30 1 -17 45 -57
67 -61 21 -3 73 15 91 32 6 7 14 28 17 48 5 31 1 42 -22 66 -30 32 -56 42 -87
32z"/>
<path d="M4716 8129 c4 -8 3 -9 -5 -5 -17 11 -57 -19 -68 -51 -17 -50 22 -110
76 -119 24 -4 79 23 90 44 23 44 9 102 -30 123 -32 17 -72 22 -63 8z"/>
<path d="M5097 8122 c-65 -40 -54 -138 17 -162 92 -30 161 79 93 147 -29 29
-77 35 -110 15z"/>
<path d="M5533 8132 c-32 -5 -63 -49 -63 -88 0 -81 104 -121 156 -60 61 70 1
164 -93 148z"/>
<path d="M5931 8126 c-63 -34 -63 -129 1 -162 37 -19 78 -11 108 20 21 24 35
76 19 76 -5 0 -6 6 -3 13 7 19 -36 54 -72 60 -17 3 -40 -1 -53 -7z"/>
<path d="M6339 8122 c-24 -17 -47 -62 -43 -85 4 -29 33 -67 59 -79 57 -26 125
27 121 93 -3 35 -32 77 -55 80 -39 5 -66 2 -82 -9z"/>
<path d="M2823 7920 c-24 -10 -53 -58 -53 -89 0 -28 45 -78 77 -84 31 -6 96
20 87 34 -3 5 -1 9 4 9 5 0 12 12 15 27 14 76 -57 132 -130 103z"/>
<path d="M3215 7900 c-65 -68 6 -180 95 -149 33 12 60 53 60 92 0 14 -13 39
-29 56 -38 40 -88 40 -126 1z"/>
<path d="M3638 7909 c-34 -25 -43 -67 -24 -113 10 -25 23 -37 43 -41 15 -4 33
-8 40 -10 19 -6 76 38 83 65 23 87 -71 152 -142 99z"/>
<path d="M4085 7920 c3 -5 0 -8 -7 -5 -18 7 -33 -5 -52 -42 -15 -29 -15 -37
-2 -67 8 -19 27 -41 43 -49 29 -15 76 -13 81 3 2 6 9 10 17 10 19 0 38 54 30
89 -4 17 -19 40 -35 51 -29 20 -86 28 -75 10z"/>
<path d="M4500 7919 c0 -5 -5 -7 -11 -4 -15 10 -47 -23 -54 -57 -21 -93 101
-152 158 -76 34 46 20 114 -30 137 -30 14 -63 14 -63 0z"/>
<path d="M5745 7920 c3 -5 0 -7 -9 -4 -19 7 -56 -30 -57 -58 -4 -70 25 -108
86 -110 92 -3 126 125 44 167 -32 17 -73 20 -64 5z"/>
<path d="M6155 7920 c3 -5 0 -7 -8 -4 -21 8 -57 -43 -57 -80 1 -46 49 -96 88
-90 6 1 19 2 27 3 28 2 65 48 65 80 0 52 -22 87 -52 82 -5 0 -8 4 -8 9 0 6
-14 10 -31 10 -17 0 -28 -4 -24 -10z"/>
<path d="M2613 7710 c-23 -9 -50 -55 -47 -80 1 -8 2 -21 3 -28 0 -7 12 -24 26
-37 52 -53 141 -18 152 58 4 31 0 41 -25 67 -31 31 -66 37 -109 20z"/>
<path d="M3006 7689 c-15 -17 -26 -43 -26 -59 0 -44 44 -90 86 -90 41 0 87 27
80 47 -4 9 -1 11 6 7 23 -14 2 85 -22 106 -37 32 -93 27 -124 -11z"/>
<path d="M3444 7710 c-23 -9 -50 -48 -48 -70 1 -8 2 -23 3 -33 0 -10 12 -29
26 -42 69 -70 186 17 141 104 -25 47 -69 63 -122 41z"/>
<path d="M3857 7713 c-22 -6 -47 -53 -47 -90 1 -54 58 -93 115 -79 65 16 88
101 40 149 -25 24 -60 31 -108 20z"/>
<path d="M6343 7710 c-43 -17 -59 -88 -30 -133 35 -54 132 -46 157 13 33 80
-44 153 -127 120z"/>
<path d="M2433 7512 c-12 -2 -33 -14 -47 -27 -37 -34 -36 -87 3 -126 40 -40
84 -39 122 1 64 66 12 167 -78 152z"/>
<path d="M2835 7510 c-32 -12 -57 -47 -61 -84 -4 -28 2 -40 27 -65 34 -34 65
-39 108 -16 59 30 61 131 3 153 -49 18 -57 19 -77 12z"/>
<path d="M3243 7505 c-62 -26 -74 -106 -22 -149 41 -35 83 -34 120 3 48 49 35
118 -30 151 -19 10 -22 10 -15 -2 6 -10 5 -11 -7 -1 -11 9 -21 8 -46 -2z"/>
<path d="M2211 7299 c-34 -13 -61 -48 -61 -76 0 -86 98 -129 159 -69 65 65
-12 180 -98 145z"/>
<path d="M2625 7301 c-74 -31 -77 -144 -4 -170 73 -25 137 29 123 104 -3 18
-13 40 -22 48 -22 19 -72 28 -97 18z"/>
<path d="M3035 7296 c-40 -17 -59 -55 -51 -100 7 -38 31 -59 77 -70 34 -8 91
30 96 63 2 14 5 27 8 29 8 9 -24 59 -49 76 -30 19 -41 19 -81 2z"/>
<path d="M1989 7086 c-32 -18 -49 -56 -43 -92 7 -37 22 -54 62 -71 28 -11 36
-11 60 1 16 8 34 21 40 29 18 21 26 73 13 81 -6 4 -9 11 -6 15 8 14 -31 42
-66 47 -20 2 -45 -2 -60 -10z"/>
<path d="M2391 7074 c-49 -41 -39 -119 18 -149 34 -17 45 -19 37 -6 -3 4 5 6
19 3 35 -6 75 40 75 88 0 75 -90 114 -149 64z"/>
<path d="M2808 7078 c-16 -13 -30 -38 -33 -58 -8 -48 35 -101 83 -102 118 -3
131 164 14 179 -28 3 -43 -1 -64 -19z"/>
<path d="M2194 6882 c-22 -15 -44 -58 -44 -85 0 -42 49 -87 95 -87 85 0 121
118 50 164 -25 17 -82 21 -101 8z"/>
<path d="M2607 6879 c-48 -28 -51 -115 -5 -151 60 -46 150 2 143 76 -4 52 -38
86 -84 86 -20 0 -44 -5 -54 -11z"/>
<path d="M1982 6666 c-33 -26 -45 -62 -32 -100 24 -74 123 -84 163 -17 25 42
21 66 -16 103 -38 38 -78 43 -115 14z"/>
<path d="M2408 6674 c-82 -44 -56 -161 38 -169 94 -9 133 131 46 167 -42 17
-55 18 -84 2z"/>
<path d="M1771 6453 c-38 -35 -45 -71 -20 -112 22 -36 52 -50 93 -44 33 5 71
37 62 51 -3 6 -1 12 5 14 22 7 1 75 -29 95 -43 29 -76 28 -111 -4z"/>
<path d="M2184 6455 c-48 -38 -36 -128 20 -152 27 -12 73 -8 92 8 24 20 45 67
34 74 -6 4 -8 11 -5 16 12 18 -6 47 -38 63 -42 19 -70 17 -103 -9z"/>
<path d="M2613 6467 c-50 -22 -61 -107 -19 -146 59 -56 156 -11 156 73 0 25
-41 75 -62 77 -7 1 -22 3 -33 4 -11 1 -30 -2 -42 -8z"/>
<path d="M1561 6251 c-16 -12 -25 -31 -28 -62 -4 -38 -1 -48 22 -72 33 -32 91
-37 124 -9 27 21 38 85 21 116 -24 46 -96 60 -139 27z"/>
<path d="M1984 6252 c-31 -25 -43 -53 -37 -87 11 -61 60 -88 129 -69 29 8 55
66 47 104 -12 61 -92 91 -139 52z"/>
<path d="M2405 6258 c-32 -19 -44 -40 -45 -80 0 -81 99 -120 155 -61 29 32 34
83 9 107 -8 9 -12 16 -8 16 4 0 0 6 -10 13 -23 17 -76 20 -101 5z"/>
<path d="M8003 7297 c-50 -22 -61 -119 -16 -152 20 -16 23 -17 56 -19 69 -6
112 64 81 130 -22 46 -72 63 -121 41z"/>
<path d="M8215 7091 c-48 -20 -64 -73 -39 -126 25 -53 96 -65 140 -24 30 28
33 96 7 128 -20 24 -77 35 -108 22z"/>
<path d="M8022 6888 c-37 -10 -70 -55 -66 -90 1 -13 3 -27 3 -31 1 -4 13 -19
27 -32 52 -48 136 -19 149 51 12 62 -52 119 -113 102z"/>
<path d="M8220 6676 c-28 -10 -38 -21 -50 -56 -11 -32 -12 -44 -3 -47 7 -2 10
-10 7 -17 -9 -22 35 -51 78 -51 32 0 45 7 67 31 30 33 34 81 10 110 -11 14
-63 45 -71 43 -2 0 -19 -6 -38 -13z"/>
<path d="M8005 6468 c-37 -22 -46 -38 -47 -80 -1 -109 154 -125 177 -17 6 26
-13 81 -33 92 -20 13 -79 16 -97 5z"/>
<path d="M8424 6469 c-54 -20 -71 -97 -31 -143 34 -39 101 -40 134 -2 63 74
-12 180 -103 145z"/>
<path d="M8197 6250 c-29 -23 -42 -78 -26 -113 19 -41 85 -60 130 -37 21 12
45 57 43 80 -1 8 -2 20 -3 27 0 7 -12 24 -26 38 -32 31 -82 33 -118 5z"/>
<path d="M1595 4170 c-57 -24 -81 -82 -54 -132 11 -20 65 -48 93 -48 26 0 74
49 78 80 6 38 -23 87 -58 100 -29 12 -32 12 -59 0z"/>
<path d="M2005 4171 c-51 -21 -74 -86 -47 -133 46 -79 173 -39 172 54 -1 29
-30 65 -65 78 -30 12 -33 12 -60 1z"/>
<path d="M1783 3958 c-49 -24 -55 -123 -8 -154 46 -30 107 -18 130 26 23 44
19 78 -14 111 -31 31 -68 37 -108 17z"/>
<path d="M2186 3947 c-49 -46 -42 -111 16 -147 51 -31 100 -12 125 48 35 84
-74 161 -141 99z"/>
<path d="M1987 3749 c-32 -18 -47 -62 -36 -102 18 -66 92 -89 144 -44 30 26
39 61 25 103 -16 47 -87 70 -133 43z"/>
<path d="M2214 3549 c-43 -16 -77 -86 -55 -113 5 -6 9 -15 9 -21 -1 -5 14 -18
31 -29 65 -38 142 13 135 88 -2 16 -9 33 -16 37 -7 5 -9 9 -3 9 17 0 -29 27
-56 32 -14 2 -34 1 -45 -3z"/>
<path d="M1993 3334 c-53 -26 -64 -96 -22 -140 62 -66 176 -4 154 83 -8 32
-34 65 -46 58 -4 -3 -10 -1 -14 5 -9 14 -35 12 -72 -6z"/>
<path d="M2181 3111 c-37 -39 -38 -79 -3 -120 63 -76 183 -7 150 87 -13 38
-37 55 -80 58 -34 2 -46 -2 -67 -25z"/>
<path d="M7774 4164 c-47 -23 -60 -62 -40 -122 8 -23 43 -44 81 -48 35 -3 73
24 85 61 14 41 8 64 -23 93 -31 29 -67 35 -103 16z"/>
<path d="M8203 4173 c-13 -2 -32 -16 -43 -30 -60 -76 24 -182 109 -138 40 20
55 53 47 98 -10 55 -52 81 -113 70z"/>
<path d="M7572 3958 c-7 -7 -12 -9 -12 -4 0 16 -32 -26 -40 -52 -8 -31 7 -78
32 -99 21 -18 72 -19 102 -4 32 17 50 61 41 100 -11 53 -91 91 -123 59z"/>
<path d="M7959 3941 c-62 -62 -15 -160 74 -153 61 5 94 63 70 124 -25 63 -96
77 -144 29z"/>
<path d="M8389 3955 c-30 -16 -48 -57 -42 -94 10 -67 96 -98 146 -53 32 28 40
51 25 70 -11 13 -11 14 1 8 23 -14 2 36 -25 62 -29 25 -67 28 -105 7z"/>
<path d="M8188 3752 c-57 -39 -65 -98 -21 -144 76 -79 193 17 136 112 -22 38
-82 54 -115 32z"/>
<path d="M7754 3736 c-23 -19 -28 -32 -28 -66 1 -85 96 -122 154 -60 79 84
-39 202 -126 126z"/>
<path d="M7567 3544 c-95 -50 -44 -190 62 -169 30 6 58 35 67 69 18 72 -63
134 -129 100z"/>
<path d="M7978 3542 c-76 -46 -54 -154 35 -169 45 -7 98 36 99 83 2 72 -75
122 -134 86z"/>
<path d="M7364 3340 c-45 -18 -67 -86 -43 -132 14 -26 67 -48 102 -41 62 12
88 98 45 147 -26 27 -72 39 -104 26z"/>
<path d="M7786 3343 c-50 -13 -75 -75 -51 -127 36 -76 144 -63 169 21 11 34
-20 90 -56 102 -17 6 -34 10 -37 10 -3 -1 -15 -4 -25 -6z"/>
<path d="M8194 3340 c-47 -19 -68 -85 -43 -132 14 -26 67 -48 102 -41 62 12
88 98 45 147 -25 29 -72 40 -104 26z"/>
<path d="M7136 3118 c-38 -33 -44 -97 -13 -126 37 -35 68 -42 107 -23 25 11
38 27 46 51 20 61 -11 109 -74 117 -31 4 -44 0 -66 -19z"/>
<path d="M7570 3133 c-17 -7 -49 -41 -51 -55 -1 -4 -2 -14 -3 -20 -4 -26 17
-69 39 -84 59 -39 130 -4 142 69 10 63 -62 115 -127 90z"/>
<path d="M7959 3109 c-45 -48 -34 -114 24 -142 61 -30 127 13 127 83 0 84 -94
120 -151 59z"/>
<path d="M6921 2901 c-30 -32 -34 -68 -12 -108 40 -75 158 -47 166 40 8 87
-94 132 -154 68z"/>
<path d="M7336 2904 c-66 -67 10 -182 98 -148 9 3 13 11 9 17 -3 5 -1 7 5 3
17 -10 42 23 42 55 0 37 -23 84 -45 93 -38 14 -82 6 -109 -20z"/>
<path d="M7754 2906 c-61 -52 -20 -156 61 -156 80 0 122 104 62 156 -37 32
-87 32 -123 0z"/>
<path d="M3865 2714 c-40 -21 -54 -44 -50 -87 3 -53 33 -81 85 -81 95 1 130
121 48 165 -32 17 -54 18 -83 3z"/>
<path d="M6365 2722 c-11 -2 -30 -15 -42 -30 -53 -60 -6 -155 73 -147 108 10
113 163 6 179 -9 1 -26 1 -37 -2z"/>
<path d="M6762 2713 c-29 -14 -41 -32 -49 -73 -3 -19 25 -80 40 -85 76 -27
124 -1 142 74 9 36 -34 86 -82 95 -11 3 -34 -3 -51 -11z"/>
<path d="M7158 2718 c-34 -12 -62 -62 -54 -99 8 -41 34 -66 77 -74 79 -15 135
91 79 150 -13 13 -27 22 -31 19 -5 -3 -9 -1 -9 3 0 11 -31 11 -62 1z"/>
<path d="M7580 2720 c-30 -7 -70 -63 -65 -90 10 -51 40 -81 88 -85 79 -7 126
90 72 148 -14 15 -29 27 -33 28 -4 0 -14 2 -22 3 -8 2 -26 0 -40 -4z"/>
<path d="M4048 2489 c-65 -65 -1 -179 84 -150 72 25 91 101 39 150 -39 37 -87
37 -123 0z"/>
<path d="M4483 2510 c-43 -17 -60 -77 -37 -126 15 -31 39 -47 74 -49 20 -1 63
20 78 37 34 41 11 119 -40 137 -36 13 -45 13 -75 1z"/>
<path d="M5724 2508 c-56 -27 -63 -114 -12 -156 40 -32 121 -12 139 35 31 82
-50 159 -127 121z"/>
<path d="M6144 2510 c-73 -29 -69 -142 6 -168 37 -13 69 -5 98 25 43 46 27
122 -31 143 -35 12 -44 12 -73 0z"/>
<path d="M6553 2508 c-29 -14 -51 -61 -45 -98 6 -41 53 -80 89 -74 85 14 120
86 70 146 -25 31 -79 43 -114 26z"/>
<path d="M6955 2498 c-26 -20 -41 -73 -30 -108 10 -31 60 -58 98 -54 69 8 101
95 54 149 -29 34 -87 40 -122 13z"/>
<path d="M7340 2492 c-48 -48 -39 -121 18 -144 66 -28 120 2 129 70 6 49 -27
90 -79 99 -32 5 -41 1 -68 -25z"/>
<path d="M3839 2281 c-37 -37 -38 -79 -3 -120 62 -74 181 -7 152 84 -23 70
-97 88 -149 36z"/>
<path d="M4264 2292 c-71 -57 -35 -162 56 -162 30 0 43 6 64 31 34 41 33 79
-3 118 -34 36 -83 41 -117 13z"/>
<path d="M4665 2278 c-23 -27 -26 -38 -21 -72 8 -50 38 -76 86 -76 66 0 113
70 84 125 -20 40 -44 54 -86 55 -29 0 -42 -7 -63 -32z"/>
<path d="M5084 2287 c-21 -19 -27 -32 -27 -65 0 -23 6 -48 13 -57 19 -23 68
-47 74 -36 4 5 14 7 24 4 30 -7 66 41 66 89 0 33 -6 45 -30 64 -38 31 -85 31
-120 1z"/>
<path d="M5515 2298 c-24 -14 -35 -29 -29 -40 3 -4 0 -8 -5 -8 -6 0 -11 -16
-11 -35 0 -19 5 -35 10 -35 6 0 10 -7 10 -15 0 -8 9 -19 19 -25 27 -14 91 -13
91 2 0 6 3 8 6 5 14 -14 44 37 44 73 0 69 -74 112 -135 78z"/>
<path d="M5914 2286 c-40 -33 -40 -99 0 -132 36 -32 86 -32 123 0 23 20 28 32
27 67 -3 80 -89 118 -150 65z"/>
<path d="M6344 2298 c-49 -23 -58 -101 -18 -142 54 -53 141 -23 152 53 10 73
-65 123 -134 89z"/>
<path d="M6745 2288 c-15 -14 -28 -38 -31 -59 -13 -81 87 -131 152 -76 21 18
27 32 27 65 0 80 -88 121 -148 70z"/>
<path d="M7156 2285 c-20 -18 -26 -34 -26 -65 0 -55 34 -90 87 -90 85 1 123
89 64 150 -37 39 -86 41 -125 5z"/>
<path d="M4068 2092 c-38 -20 -53 -55 -44 -104 5 -28 14 -40 40 -52 49 -23 74
-20 107 15 51 55 34 122 -38 146 -25 9 -38 8 -65 -5z"/>
<path d="M4482 2090 c-35 -22 -53 -57 -47 -91 5 -24 32 -69 43 -70 4 0 20 -3
37 -5 81 -14 133 94 73 152 -34 32 -68 37 -106 14z"/>
<path d="M4902 2095 c-36 -16 -52 -42 -52 -87 1 -40 17 -64 54 -78 44 -16 66
-12 97 21 40 43 39 72 -6 137 -10 13 -66 18 -93 7z"/>
<path d="M5333 2103 c-27 -5 -73 -58 -73 -83 0 -62 55 -107 116 -95 26 4 38
15 53 43 24 47 24 47 6 82 -12 24 -65 64 -77 59 -2 -1 -13 -4 -25 -6z"/>
<path d="M5728 2091 c-62 -31 -67 -119 -9 -154 43 -25 78 -21 112 12 37 37 38
79 4 119 -31 37 -66 44 -107 23z"/>
<path d="M6146 2096 c-60 -27 -74 -100 -27 -146 23 -24 35 -28 69 -26 46 3 64
17 79 62 15 43 -5 86 -50 107 -19 9 -37 17 -39 16 -1 0 -16 -6 -32 -13z"/>
<path d="M6561 2094 c-29 -12 -59 -56 -55 -81 1 -7 2 -19 3 -26 2 -23 35 -55
64 -62 42 -11 76 2 97 38 26 43 25 69 -5 105 -30 35 -62 44 -104 26z"/>
<path d="M6985 2099 c-89 -25 -82 -157 9 -175 59 -11 105 27 106 86 0 65 -53
106 -115 89z"/>
<path d="M3839 1861 c-38 -38 -40 -91 -4 -126 13 -14 30 -25 37 -26 7 0 20 -2
30 -4 31 -6 76 32 84 70 17 95 -80 152 -147 86z"/>
<path d="M4253 1864 c-37 -30 -38 -93 -1 -130 52 -52 144 -21 152 52 10 85
-82 133 -151 78z"/>
<path d="M4670 1862 c-47 -48 -41 -107 14 -141 33 -21 44 -21 88 -3 80 33 56
154 -34 169 -32 5 -41 1 -68 -25z"/>
<path d="M5101 1876 c-28 -16 -50 -52 -51 -83 0 -30 48 -81 81 -87 52 -9 113
50 104 100 -2 11 -4 22 -4 25 -2 14 -43 49 -52 44 -5 -4 -9 -1 -9 4 0 15 -40
13 -69 -3z"/>
<path d="M5530 1883 c-34 -13 -60 -47 -60 -80 0 -47 16 -72 55 -89 60 -25 125
17 125 82 0 34 -38 87 -57 80 -8 -3 -11 -1 -8 4 6 11 -29 12 -55 3z"/>
<path d="M5923 1870 c-42 -25 -53 -75 -27 -119 20 -34 44 -45 89 -42 34 2 77
38 73 61 -1 8 0 20 4 25 10 17 -21 71 -48 84 -35 16 -54 14 -91 -9z"/>
<path d="M6349 1879 c-53 -20 -69 -104 -27 -145 46 -46 124 -33 148 25 16 41
4 87 -30 111 -30 22 -51 24 -91 9z"/>
<path d="M4459 1649 c-31 -34 -35 -50 -19 -96 31 -88 170 -60 170 34 -1 87
-93 124 -151 62z"/>
<path d="M4892 1670 c-21 -9 -46 -51 -45 -77 1 -37 5 -46 28 -68 33 -34 93
-34 124 -1 13 14 20 29 16 35 -3 6 -1 11 4 11 22 0 10 52 -18 81 -31 30 -65
36 -109 19z"/>
<path d="M5286 1650 c-16 -20 -26 -43 -26 -63 1 -36 23 -72 40 -62 6 4 9 1 8
-7 -3 -15 42 -23 79 -14 13 4 32 20 42 37 15 25 17 37 9 69 -12 45 -38 65 -89
69 -30 2 -41 -3 -63 -29z"/>
<path d="M5713 1662 c-68 -52 -34 -162 51 -162 84 0 124 93 65 156 -25 26 -86
30 -116 6z"/>
</g>
</svg>
