<?xml version="1.0" standalone="no"?>
<!DOCTYPE svg PUBLIC "-//W3C//DTD SVG 20010904//EN"
 "http://www.w3.org/TR/2001/REC-SVG-20010904/DTD/svg10.dtd">
<svg version="1.0" xmlns="http://www.w3.org/2000/svg"
 width="1024.000000pt" height="1024.000000pt" viewBox="0 0 1024.000000 1024.000000"
 preserveAspectRatio="xMidYMid meet">
<metadata>
Created by potrace 1.11, written by Peter Selinger 2001-2013
</metadata>
<g transform="translate(0.000000,1024.000000) scale(0.100000,-0.100000)"
fill="#000000" stroke="none">
<path d="M4829 10236 c-2 -2 -50 -7 -105 -10 -56 -4 -112 -9 -125 -11 -13 -2
-51 -6 -84 -9 -33 -3 -71 -8 -85 -10 -14 -3 -60 -10 -103 -16 -95 -14 -305
-55 -377 -74 -8 -2 -28 -7 -45 -11 -533 -125 -1120 -382 -1600 -700 -433 -287
-789 -608 -1153 -1039 -65 -77 -225 -297 -307 -421 -289 -440 -488 -867 -640
-1374 -50 -169 -103 -397 -130 -561 -4 -25 -9 -52 -10 -60 -4 -20 -16 -99 -20
-130 -2 -14 -7 -52 -10 -85 -4 -33 -9 -73 -11 -90 -13 -103 -19 -265 -19 -510
0 -349 10 -508 50 -765 19 -122 27 -171 35 -205 5 -22 11 -56 14 -75 10 -65
94 -384 134 -510 354 -1107 1073 -2062 2037 -2707 138 -92 302 -193 314 -193
5 0 14 -7 21 -15 21 -26 26 -3 25 134 0 72 2 131 5 131 3 0 5 971 4 2158 0
1186 3 2195 7 2242 11 127 19 187 36 265 8 39 17 84 20 100 9 56 74 260 115
360 296 738 953 1304 1723 1485 80 19 100 23 205 41 174 29 571 32 705 5 11
-2 42 -7 69 -10 27 -4 79 -14 115 -22 36 -9 75 -18 87 -20 45 -8 221 -66 308
-100 197 -79 381 -181 573 -320 l104 -75 -2 1481 -1 1480 -97 30 c-84 25 -164
48 -196 56 -5 1 -57 13 -115 27 -58 14 -130 30 -160 36 -30 6 -66 14 -80 16
-14 3 -38 7 -55 10 -16 3 -41 7 -55 10 -45 8 -84 14 -145 20 -33 4 -67 8 -75
10 -8 2 -51 7 -95 11 -44 4 -93 9 -110 11 -37 5 -691 13 -696 9z m564 -950
c56 -4 114 -8 127 -10 14 -3 54 -7 90 -11 75 -7 126 -14 156 -20 12 -3 39 -7
60 -10 21 -3 50 -8 64 -11 14 -3 36 -8 50 -10 134 -24 509 -128 570 -159 24
-13 26 -17 25 -98 0 -47 -3 -88 -6 -91 -3 -3 -58 13 -124 35 -116 40 -393 114
-464 125 -20 3 -52 9 -71 14 -19 4 -57 11 -83 15 -27 3 -56 8 -65 10 -10 1
-46 6 -82 10 -36 4 -72 9 -81 10 -120 23 -678 23 -819 1 -14 -3 -52 -7 -85
-11 -52 -5 -147 -20 -260 -41 -113 -20 -319 -73 -450 -115 -602 -193 -1146
-522 -1583 -958 -87 -87 -129 -131 -227 -242 -129 -144 -305 -393 -427 -604
-34 -58 -173 -337 -205 -410 -115 -263 -244 -712 -269 -940 -3 -27 -7 -52 -9
-55 -2 -3 -6 -37 -10 -75 -4 -39 -9 -79 -11 -90 -9 -47 -18 -293 -17 -445 1
-193 11 -328 34 -490 6 -41 13 -91 15 -110 27 -186 109 -503 186 -710 72 -196
193 -460 274 -597 11 -17 34 -57 53 -90 54 -92 204 -310 283 -409 115 -144
164 -199 305 -343 l132 -134 -1 -159 c0 -166 0 -166 -38 -128 -3 3 -39 34 -80
70 -72 62 -249 237 -336 331 -22 24 -87 103 -145 174 -316 394 -548 817 -707
1290 -37 108 -87 282 -97 336 -2 11 -7 29 -10 39 -3 10 -8 29 -10 42 -3 13 -9
46 -15 73 -11 52 -13 62 -26 135 -4 25 -8 47 -9 50 -1 3 -5 34 -9 70 -5 36
-10 73 -12 82 -1 9 -5 52 -9 95 -3 43 -8 103 -11 133 -6 68 -7 490 0 545 2 22
7 78 11 125 4 47 8 92 10 100 1 8 6 40 10 70 4 30 9 64 11 75 2 11 7 40 10 65
3 25 8 47 9 50 2 3 6 24 10 48 8 56 68 296 99 399 95 315 243 648 414 933 250
416 597 815 962 1105 41 33 77 62 80 66 3 3 37 27 75 54 39 27 72 52 75 55 10
11 214 141 299 191 368 214 740 360 1166 458 145 34 216 46 430 77 42 6 124
13 240 20 55 3 101 7 102 8 4 4 332 -2 426 -8z m-336 -383 c-17 -92 89 -149
155 -83 26 27 30 36 25 70 l-5 39 76 -3 c43 -2 96 -4 120 -5 41 -1 42 -2 42
-37 0 -26 8 -43 29 -65 31 -31 64 -36 105 -18 27 12 61 73 51 89 -3 5 0 8 7 6
7 -3 33 -7 58 -10 138 -16 179 -30 180 -58 0 -12 57 -38 82 -38 13 0 34 7 46
16 23 16 15 17 195 -31 9 -3 25 -7 35 -9 25 -6 244 -84 246 -88 34 -63 44
-315 15 -382 -17 -38 -12 -91 9 -105 13 -10 8 -273 -6 -298 -18 -32 -18 -90 0
-110 20 -25 20 -282 -1 -307 -8 -9 -14 -34 -14 -56 l0 -39 -26 18 c-42 30
-229 125 -326 165 -88 37 -90 39 -91 72 -2 80 -96 114 -154 56 l-28 -28 -83
23 c-92 25 -90 24 -239 48 -165 26 -155 23 -136 44 57 63 -4 163 -90 147 -61
-12 -88 -73 -60 -138 7 -16 -3 -18 -128 -17 l-135 0 9 25 c6 14 10 37 10 50 0
35 -51 84 -87 84 -27 0 -70 -22 -85 -44 -11 -16 -9 -75 3 -98 6 -11 9 -21 7
-23 -2 -2 -27 -6 -57 -9 -105 -12 -193 -28 -388 -73 -14 -3 -32 3 -49 16 -54
42 -142 12 -146 -51 -2 -20 -10 -31 -33 -39 -93 -37 -279 -122 -334 -153 -34
-20 -66 -36 -70 -36 -4 0 -7 10 -8 23 -3 31 -55 75 -86 72 -45 -5 -62 -15 -80
-44 -23 -39 -18 -78 14 -112 l26 -28 -45 -30 c-45 -29 -46 -29 -71 -12 -34 24
-85 20 -116 -9 -28 -26 -34 -52 -22 -97 7 -29 4 -36 -25 -62 -29 -27 -38 -30
-79 -25 -39 5 -49 3 -78 -22 -31 -26 -33 -31 -29 -76 5 -44 2 -53 -25 -83 -28
-32 -33 -34 -74 -28 -51 7 -86 -8 -102 -44 -15 -33 -14 -65 4 -89 13 -20 12
-25 -18 -67 l-33 -46 -21 21 c-46 46 -133 15 -148 -53 -6 -27 17 -89 33 -89 4
0 16 -7 26 -15 17 -13 18 -17 5 -32 -27 -34 -127 -232 -174 -345 -17 -41 -35
-70 -47 -74 -41 -13 -68 -108 -39 -137 7 -7 6 -17 -1 -31 -6 -12 -11 -22 -10
-24 1 -1 -3 -23 -10 -49 l-12 -48 -13 33 c-25 62 -113 76 -153 24 -22 -28 -26
-88 -7 -113 33 -43 99 -48 140 -11 19 17 20 16 14 -13 -4 -16 -14 -78 -24
-137 l-17 -108 -29 0 c-59 0 -96 -35 -97 -93 0 -48 35 -87 79 -87 l30 0 -2
-127 c-2 -106 -5 -128 -17 -129 -32 -2 -38 -5 -64 -29 -37 -34 -36 -87 3 -126
17 -17 40 -29 55 -29 l25 0 0 -115 0 -115 -25 0 c-15 0 -38 -12 -55 -29 -57
-57 -26 -143 56 -155 19 -3 20 -11 20 -117 0 -69 -4 -114 -10 -114 -56 -3 -95
-44 -95 -100 0 -34 50 -85 84 -85 l25 0 0 -115 0 -115 -25 0 c-15 0 -38 -12
-56 -30 -27 -27 -30 -36 -25 -71 5 -40 35 -78 64 -80 7 -1 19 -2 26 -3 9 -1
12 -32 14 -112 l2 -111 -39 -12 c-94 -28 -91 -159 4 -177 l34 -6 1 -114 0
-114 -25 0 c-34 0 -84 -51 -84 -85 0 -57 49 -106 97 -97 9 2 12 -28 12 -116
-1 -117 -1 -119 -24 -118 -35 2 -112 85 -110 119 3 38 -28 74 -73 87 -29 8
-49 26 -89 79 -29 38 -53 73 -53 78 0 5 -11 20 -25 33 -23 21 -195 271 -195
282 0 3 -23 43 -50 89 l-50 84 32 3 c87 9 118 116 49 169 -28 22 -86 16 -112
-12 -13 -13 -27 -25 -30 -25 -3 0 -15 22 -27 48 -20 44 -21 52 -8 83 7 19 11
41 9 49 -12 40 -29 60 -62 73 -35 14 -38 20 -79 138 -23 68 -55 170 -71 226
-25 91 -26 103 -13 117 9 9 16 33 16 57 0 36 -5 46 -36 73 -23 20 -38 43 -42
66 -3 19 -8 44 -10 55 -2 11 -7 44 -11 73 -6 48 -5 52 14 52 31 0 81 50 87 87
7 46 -40 97 -90 97 -43 0 -43 0 -51 141 l-5 100 43 -3 c63 -5 100 27 100 88 0
36 -6 48 -28 68 -24 20 -36 23 -73 19 l-44 -5 6 102 c2 55 5 115 5 132 1 29 3
30 41 30 89 0 127 97 61 156 -21 19 -40 28 -52 25 -10 -3 -21 -2 -23 2 -8 12
33 226 44 229 6 2 22 14 36 27 30 28 35 82 10 120 -16 25 -16 30 4 108 12 45
42 145 68 221 44 129 49 140 76 147 68 18 99 92 61 146 -14 20 -13 27 11 79
l26 58 14 -27 c28 -53 93 -63 142 -22 26 22 30 32 28 66 -5 59 -39 92 -93 87
l-42 -3 31 55 c17 30 42 75 56 100 32 56 144 233 153 240 3 3 11 15 18 27 6
13 25 30 40 38 19 9 34 28 41 52 7 21 30 62 52 91 35 45 45 52 75 52 40 0 82
37 84 72 1 13 2 32 2 44 3 32 67 104 86 95 9 -4 22 -6 29 -5 6 1 19 2 27 3 9
0 27 12 41 26 21 21 25 34 22 68 -3 39 1 46 37 79 34 30 47 36 76 33 51 -5 89
27 96 82 5 37 13 48 58 83 28 22 62 40 74 40 22 0 71 41 71 59 0 12 167 126
275 188 101 58 165 93 171 93 2 0 3 -12 1 -27 -5 -33 16 -78 42 -93 67 -35
149 18 136 89 -7 39 -29 69 -58 80 -15 6 -4 14 46 35 63 27 66 27 92 10 22
-15 32 -15 66 -5 34 10 44 20 60 55 l19 43 137 46 c76 25 175 55 221 66 75 20
85 20 112 6 48 -25 79 -19 116 21 30 31 44 37 112 49 151 26 142 26 142 -2 0
-32 51 -83 84 -83 46 0 75 18 91 56 8 21 13 45 10 55 -7 20 6 22 154 26 l83 3
-5 -27z"/>
<path d="M4074 8760 c-55 -22 -71 -99 -31 -146 30 -34 96 -39 127 -8 34 33 41
77 19 113 -27 44 -70 60 -115 41z"/>
<path d="M4478 8752 c-61 -37 -57 -123 6 -157 28 -15 38 -16 69 -6 52 17 73
60 58 113 -19 61 -79 84 -133 50z"/>
<path d="M4898 8755 c-53 -30 -64 -95 -24 -142 53 -61 156 -21 156 62 0 68
-74 112 -132 80z"/>
<path d="M5314 8756 c-31 -14 -57 -61 -51 -96 4 -24 30 -56 56 -70 38 -20 99
3 116 44 14 33 14 45 1 84 -7 22 -53 52 -78 52 -7 -1 -27 -7 -44 -14z"/>
<path d="M5733 8760 c-37 -15 -63 -66 -52 -103 14 -50 43 -72 91 -71 52 2 88
38 88 89 0 63 -69 109 -127 85z"/>
<path d="M6145 8756 c-29 -13 -55 -51 -55 -82 0 -49 59 -99 106 -90 90 18 110
138 28 172 -40 17 -41 17 -79 0z"/>
<path d="M3839 8521 c-59 -59 -22 -150 61 -150 46 -1 79 26 89 71 21 90 -84
145 -150 79z"/>
<path d="M4255 8527 c-39 -33 -40 -100 -1 -133 57 -49 141 -17 153 58 5 32 1
41 -25 68 -38 38 -88 41 -127 7z"/>
<path d="M4689 8543 c-28 -7 -53 -65 -45 -105 19 -104 176 -85 176 20 0 69
-56 105 -131 85z"/>
<path d="M5086 8528 c-39 -35 -42 -90 -6 -128 39 -42 90 -42 132 0 26 27 29
35 24 68 -9 48 -47 82 -91 82 -21 0 -44 -9 -59 -22z"/>
<path d="M5501 8531 c-16 -12 -25 -31 -28 -62 -4 -38 -1 -48 22 -72 59 -59
155 -19 155 65 0 74 -88 116 -149 69z"/>
<path d="M5914 8527 c-21 -19 -27 -32 -27 -67 0 -35 6 -48 27 -67 36 -31 86
-30 123 1 61 53 21 156 -62 156 -21 0 -44 -9 -61 -23z"/>
<path d="M6326 8524 c-83 -84 41 -210 128 -129 58 54 17 155 -64 155 -27 0
-45 -7 -64 -26z"/>
<path d="M3243 8335 c-62 -27 -74 -106 -22 -149 41 -35 83 -34 120 3 49 50 37
121 -26 147 -40 16 -32 17 -72 -1z"/>
<path d="M3662 8339 c-31 -12 -62 -58 -59 -89 11 -97 136 -123 172 -35 32 75
-38 152 -113 124z"/>
<path d="M4062 8330 c-17 -10 -34 -29 -38 -42 -33 -97 76 -170 147 -99 77 78
-16 197 -109 141z"/>
<path d="M4508 8340 c-40 -8 -66 -34 -74 -75 -18 -98 125 -144 171 -55 17 34
11 78 -15 105 -25 27 -45 33 -82 25z"/>
<path d="M4913 8338 c-74 -19 -89 -129 -23 -163 44 -23 78 -19 111 14 68 68 5
174 -88 149z"/>
<path d="M5311 8332 c-72 -35 -62 -143 17 -167 84 -25 153 77 96 144 -28 34
-73 43 -113 23z"/>
<path d="M5731 8334 c-67 -28 -73 -127 -10 -159 44 -23 77 -18 111 15 27 27
30 36 25 72 -3 22 -12 47 -19 54 -25 25 -72 33 -107 18z"/>
<path d="M6165 8341 c-76 -22 -99 -98 -46 -152 69 -68 162 -15 151 86 -4 41
-63 78 -105 66z"/>
<path d="M3034 8130 c-44 -17 -67 -86 -44 -131 16 -28 67 -51 99 -44 69 15 98
103 50 151 -27 26 -73 37 -105 24z"/>
<path d="M3429 8111 c-50 -45 -43 -115 15 -146 44 -24 99 -7 122 37 46 90 -63
177 -137 109z"/>
<path d="M3860 8122 c-62 -31 -67 -116 -7 -153 55 -34 119 -8 136 55 11 43
-13 92 -52 106 -38 13 -36 13 -77 -8z"/>
<path d="M4260 8113 c-36 -33 -45 -76 -22 -115 41 -70 154 -51 168 29 6 34
-13 81 -39 94 -43 24 -74 21 -107 -8z"/>
<path d="M4688 8125 c-80 -44 -55 -162 35 -170 54 -5 97 33 97 85 0 73 -71
118 -132 85z"/>
<path d="M5090 8114 c-34 -29 -43 -69 -23 -111 36 -77 157 -58 168 26 10 85
-81 138 -145 85z"/>
<path d="M5533 8133 c-13 -3 -32 -16 -43 -30 -47 -60 -7 -148 68 -148 56 0 92
34 92 86 0 63 -52 104 -117 92z"/>
<path d="M5927 8122 c-60 -37 -56 -123 7 -157 76 -41 159 36 125 118 -20 49
-85 68 -132 39z"/>
<path d="M6348 8125 c-79 -44 -55 -162 34 -170 91 -8 135 105 64 164 -23 19
-68 22 -98 6z"/>
<path d="M2823 7920 c-12 -5 -29 -23 -39 -41 -49 -96 76 -181 148 -100 21 24
28 40 24 59 -7 46 -17 62 -47 77 -31 17 -54 18 -86 5z"/>
<path d="M3221 7904 c-53 -44 -40 -123 24 -150 92 -38 167 76 96 147 -37 37
-79 38 -120 3z"/>
<path d="M3629 7899 c-31 -34 -35 -50 -19 -96 11 -29 32 -45 76 -58 29 -7 86
33 95 68 25 92 -87 155 -152 86z"/>
<path d="M4065 7918 c-11 -6 -25 -19 -32 -27 -15 -20 -17 -76 -3 -102 11 -20
57 -46 78 -43 6 1 19 2 27 3 9 0 27 13 40 27 69 74 -23 192 -110 142z"/>
<path d="M4490 7923 c-28 -10 -49 -35 -55 -65 -20 -89 92 -150 154 -84 66 70
-8 182 -99 149z"/>
<path d="M5724 7919 c-64 -32 -61 -129 4 -163 85 -44 173 66 110 139 -26 29
-81 41 -114 24z"/>
<path d="M6119 7899 c-16 -17 -29 -42 -29 -56 0 -86 102 -130 160 -68 40 43
29 115 -21 141 -45 23 -78 17 -110 -17z"/>
<path d="M2622 7715 c-62 -26 -75 -108 -24 -152 56 -51 136 -19 148 58 11 66
-61 120 -124 94z"/>
<path d="M3454 7715 c-37 -15 -52 -33 -57 -70 -13 -91 89 -140 155 -75 26 27
30 36 25 67 -11 65 -68 101 -123 78z"/>
<path d="M3006 7689 c-15 -17 -26 -43 -26 -59 0 -16 11 -42 26 -59 66 -79 189
1 149 97 -26 61 -106 73 -149 21z"/>
<path d="M3857 7713 c-20 -5 -47 -53 -47 -83 0 -36 32 -79 62 -85 70 -16 118
20 118 88 0 66 -57 100 -133 80z"/>
<path d="M6325 7694 c-34 -37 -34 -90 0 -127 56 -59 155 -19 155 63 0 81 -101
122 -155 64z"/>
<path d="M2423 7508 c-41 -11 -63 -42 -63 -89 0 -29 7 -43 31 -63 17 -15 43
-26 59 -26 16 0 42 11 59 26 24 20 31 34 31 63 0 67 -52 107 -117 89z"/>
<path d="M2829 7507 c-32 -12 -61 -58 -57 -90 13 -92 132 -118 173 -37 38 75
-36 157 -116 127z"/>
<path d="M3242 7505 c-61 -26 -73 -106 -21 -149 41 -35 83 -34 120 3 73 73 -3
186 -99 146z"/>
<path d="M2180 7280 c-35 -33 -39 -70 -11 -116 21 -34 77 -52 108 -35 87 46
66 167 -30 176 -29 3 -43 -2 -67 -25z"/>
<path d="M2625 7301 c-81 -34 -77 -149 6 -171 31 -9 45 -7 69 5 100 52 29 208
-75 166z"/>
<path d="M3034 7301 c-33 -15 -57 -59 -51 -97 8 -50 39 -78 87 -78 113 -1 126
160 15 179 -16 2 -39 1 -51 -4z"/>
<path d="M1993 7090 c-12 -5 -29 -23 -38 -40 -42 -82 46 -167 124 -119 102 62
25 204 -86 159z"/>
<path d="M2391 7074 c-25 -21 -31 -33 -31 -65 0 -42 33 -88 65 -90 8 -1 21 -2
28 -3 40 -7 86 45 87 96 0 28 -7 42 -31 62 -17 15 -43 26 -59 26 -16 0 -42
-11 -59 -26z"/>
<path d="M2807 7077 c-41 -33 -46 -84 -13 -124 30 -36 63 -45 103 -28 36 15
53 37 57 72 10 82 -82 133 -147 80z"/>
<path d="M2194 6882 c-23 -16 -44 -58 -44 -87 0 -45 45 -85 94 -85 86 0 122
117 51 164 -25 17 -82 21 -101 8z"/>
<path d="M2595 6865 c-14 -13 -26 -30 -26 -37 -1 -7 -2 -20 -3 -28 -2 -23 22
-68 43 -80 37 -19 81 -12 112 19 37 37 38 79 3 120 -34 41 -92 44 -129 6z"/>
<path d="M2004 6680 c-27 -11 -64 -57 -64 -82 0 -47 50 -98 96 -98 29 0 71 29
83 58 30 71 -44 148 -115 122z"/>
<path d="M2403 6670 c-79 -48 -42 -170 52 -170 38 0 85 50 85 90 0 44 -16 69
-55 86 -43 18 -44 18 -82 -6z"/>
<path d="M1770 6453 c-67 -60 -28 -159 61 -156 49 2 76 24 84 67 12 61 -20
102 -86 113 -20 3 -36 -4 -59 -24z"/>
<path d="M2193 6461 c-84 -52 -28 -183 70 -164 65 13 93 102 46 149 -34 34
-77 39 -116 15z"/>
<path d="M2598 6452 c-45 -41 -44 -93 1 -134 27 -24 39 -28 67 -24 45 8 73 33
80 74 8 44 -12 81 -53 99 -46 19 -59 17 -95 -15z"/>
<path d="M1568 6253 c-63 -39 -46 -141 28 -162 92 -26 153 81 85 150 -34 33
-72 37 -113 12z"/>
<path d="M1987 6259 c-27 -16 -49 -67 -42 -98 20 -91 143 -99 176 -12 12 31
-6 86 -34 106 -24 17 -74 19 -100 4z"/>
<path d="M2400 6253 c-14 -9 -28 -22 -32 -27 -13 -19 -9 -76 8 -101 45 -69
164 -36 164 47 0 80 -77 125 -140 81z"/>
<path d="M1803 6058 c-41 -11 -67 -49 -65 -96 4 -104 158 -110 178 -7 12 65
-50 121 -113 103z"/>
<path d="M2176 6029 c-35 -41 -34 -83 3 -120 69 -68 175 -6 149 88 -11 41 -42
63 -89 63 -29 0 -43 -7 -63 -31z"/>
<path d="M1583 5845 c-38 -16 -53 -42 -53 -88 0 -50 49 -91 99 -83 94 15 111
136 26 172 -40 16 -32 17 -72 -1z"/>
<path d="M2004 5850 c-38 -15 -66 -61 -60 -98 14 -87 132 -108 171 -31 22 41
18 65 -12 99 -30 32 -65 42 -99 30z"/>
<path d="M1795 5641 c-84 -35 -73 -157 16 -176 94 -21 149 115 66 165 -34 21
-51 23 -82 11z"/>
<path d="M2200 5637 c-67 -33 -65 -127 3 -160 45 -22 81 -14 110 25 22 30 25
69 7 103 -20 38 -77 53 -120 32z"/>
<path d="M1557 5412 c-50 -52 -29 -132 38 -151 92 -26 157 92 84 153 -42 35
-87 35 -122 -2z"/>
<path d="M1987 5429 c-27 -16 -50 -68 -42 -98 24 -97 163 -95 181 3 13 71 -76
132 -139 95z"/>
<path d="M1766 5184 c-35 -36 -36 -95 -1 -129 54 -55 155 -15 155 61 0 82 -96
125 -154 68z"/>
<path d="M2185 5188 c-15 -14 -28 -38 -32 -60 -5 -32 -1 -41 25 -68 75 -75
188 -1 147 97 -24 56 -93 71 -140 31z"/>
<path d="M1592 4999 c-37 -14 -54 -36 -59 -79 -5 -34 -1 -43 25 -70 18 -17 41
-30 56 -30 65 0 112 55 95 114 -5 17 -9 32 -9 33 0 6 -50 34 -66 37 -11 2 -29
0 -42 -5z"/>
<path d="M2004 4999 c-49 -18 -71 -74 -48 -127 33 -79 154 -63 170 23 13 70
-56 129 -122 104z"/>
<path d="M1800 4792 c-61 -20 -82 -108 -36 -151 14 -13 40 -24 62 -26 50 -5
94 37 94 90 0 60 -63 106 -120 87z"/>
<path d="M2201 4786 c-27 -15 -50 -52 -51 -79 0 -27 27 -74 47 -82 80 -31 151
20 136 98 -11 55 -84 91 -132 63z"/>
<path d="M1559 4561 c-71 -71 4 -185 96 -147 65 27 78 101 26 148 -42 38 -83
37 -122 -1z"/>
<path d="M1989 4575 c-69 -38 -50 -153 28 -168 93 -18 150 104 76 163 -30 23
-67 25 -104 5z"/>
<path d="M1771 4363 c-29 -24 -41 -71 -26 -106 40 -97 176 -65 175 41 -1 67
-96 108 -149 65z"/>
<path d="M2185 4358 c-16 -15 -27 -37 -30 -61 -4 -33 -1 -43 24 -68 31 -31 75
-38 112 -19 20 11 46 57 43 78 -1 6 -2 19 -3 27 0 9 -12 27 -26 40 -32 33 -84
33 -120 3z"/>
<path d="M1590 4169 c-64 -25 -80 -101 -31 -150 73 -72 189 12 144 104 -11 22
-68 60 -85 56 -2 0 -14 -5 -28 -10z"/>
<path d="M2014 4173 c-28 -5 -63 -42 -67 -73 -15 -95 108 -148 163 -71 51 72
-7 159 -96 144z"/>
<path d="M1794 3960 c-55 -22 -73 -109 -31 -147 63 -57 157 -20 157 62 0 37
-16 62 -50 80 -32 17 -45 18 -76 5z"/>
<path d="M2215 3963 c-51 -13 -77 -80 -51 -131 36 -69 145 -59 165 15 12 43 2
73 -35 102 -26 21 -40 23 -79 14z"/>
<path d="M1984 3742 c-71 -57 -38 -164 52 -164 31 0 44 7 67 32 24 27 28 39
23 69 -11 69 -91 105 -142 63z"/>
<path d="M2186 3528 c-14 -13 -28 -39 -32 -60 -5 -33 -2 -41 24 -68 75 -75
188 -1 147 97 -24 56 -93 72 -139 31z"/>
<path d="M2004 3339 c-50 -18 -75 -86 -47 -129 32 -49 81 -61 130 -31 91 56
17 198 -83 160z"/>
<path d="M2212 3133 c-25 -5 -62 -56 -62 -86 0 -36 29 -75 64 -87 105 -34 171
108 76 163 -28 17 -36 18 -78 10z"/>
<path d="M7606 9348 c-4 -134 -8 -1197 -9 -2363 -2 -1166 -6 -2131 -9 -2145
-4 -14 -9 -45 -12 -70 -25 -211 -111 -497 -217 -719 -82 -170 -233 -406 -333
-520 -142 -161 -259 -273 -421 -400 -90 -70 -295 -193 -424 -253 -344 -162
-679 -236 -1062 -236 -154 1 -431 26 -457 41 -4 3 -23 8 -42 11 -140 22 -360
97 -545 185 -152 73 -247 130 -407 242 -69 49 -128 89 -130 89 -4 0 0 -2844 4
-2915 3 -49 4 -50 43 -63 163 -54 455 -126 635 -156 182 -31 201 -34 275 -41
33 -4 70 -8 81 -10 178 -28 876 -28 1092 0 20 2 78 10 127 16 451 56 949 195
1395 391 467 205 927 502 1345 868 101 88 401 398 499 515 502 602 849 1267
1041 1998 44 167 38 140 74 322 16 83 33 177 36 210 4 33 9 63 11 66 2 4 7 40
10 80 3 41 7 76 9 79 26 43 26 1056 0 1100 -1 3 -5 34 -9 70 -3 36 -8 76 -10
90 -3 14 -9 57 -15 95 -6 39 -13 81 -16 95 -3 14 -8 41 -11 60 -15 82 -42 203
-60 275 -9 33 -17 67 -19 75 -52 232 -216 663 -364 960 -323 646 -724 1157
-1297 1651 -145 125 -494 376 -631 454 -10 6 -50 29 -90 53 -39 23 -74 42 -76
42 -3 0 -8 -109 -11 -242z m225 -1055 c487 -420 880 -950 1118 -1508 24 -55
49 -113 56 -130 38 -87 123 -349 164 -505 37 -142 81 -382 97 -520 3 -30 7
-66 9 -79 11 -64 19 -255 19 -426 0 -235 -11 -416 -39 -595 -2 -14 -6 -43 -10
-65 -6 -44 -7 -48 -31 -175 -17 -87 -82 -349 -91 -362 -2 -5 -6 -16 -8 -25 -2
-10 -17 -59 -33 -109 -108 -323 -278 -671 -467 -958 -63 -96 -218 -311 -234
-326 -4 -3 -40 -45 -81 -95 -41 -49 -144 -160 -230 -245 -154 -153 -185 -182
-269 -250 -23 -19 -53 -43 -64 -54 -82 -70 -302 -226 -437 -308 -262 -161
-555 -298 -845 -396 -136 -46 -378 -113 -455 -127 -17 -3 -61 -12 -98 -19 -37
-8 -92 -17 -122 -21 -30 -3 -62 -8 -70 -10 -8 -2 -37 -6 -65 -10 -27 -3 -66
-8 -85 -10 -196 -25 -683 -25 -875 0 -16 2 -55 6 -85 10 -30 3 -62 8 -70 10
-8 2 -35 6 -60 9 -84 11 -282 51 -357 72 -29 9 -63 17 -77 20 -14 2 -92 26
-173 52 l-148 48 -3 131 -3 131 138 -48 c241 -84 572 -163 779 -185 32 -4 70
-8 84 -11 111 -18 603 -25 760 -11 169 16 334 40 470 69 52 10 106 22 120 24
14 3 43 10 65 16 22 6 45 12 51 14 24 4 194 57 264 81 201 69 458 185 652 293
148 83 392 249 538 366 157 126 449 413 572 564 354 435 607 917 757 1440 28
100 74 295 86 370 3 19 10 60 15 90 5 30 12 82 16 115 3 33 8 69 10 80 25 131
24 729 -1 863 -1 9 -6 44 -10 77 -64 561 -297 1186 -627 1679 -164 246 -301
411 -522 631 l-151 150 0 107 c0 60 2 108 6 108 3 0 26 -17 50 -37z m32 -546
c23 5 35 -1 66 -34 28 -29 36 -44 31 -58 -17 -49 31 -115 85 -115 30 0 40 -7
79 -57 25 -31 43 -59 41 -62 -8 -15 26 -72 49 -81 24 -9 80 -85 166 -225 37
-60 130 -224 130 -229 0 -1 -17 0 -38 2 -30 3 -45 -2 -68 -21 -63 -54 -22
-157 62 -157 34 0 84 35 84 60 0 25 17 5 39 -45 22 -52 22 -56 7 -80 -35 -53
-6 -127 54 -140 17 -4 34 -14 39 -23 13 -25 75 -214 107 -326 26 -95 27 -100
11 -128 -9 -16 -17 -43 -17 -59 0 -34 26 -79 46 -79 20 0 30 -26 48 -131 20
-119 20 -109 -7 -109 -53 0 -100 -63 -86 -116 12 -44 41 -66 88 -67 47 -1 46
2 50 -172 l3 -117 -23 16 c-34 23 -83 20 -116 -8 -22 -19 -28 -32 -28 -65 0
-73 74 -117 135 -79 l32 19 -5 -113 c-3 -62 -6 -126 -7 -142 0 -23 -3 -27 -17
-21 -37 14 -57 14 -89 -1 -43 -20 -60 -61 -44 -108 14 -44 46 -65 92 -60 25 2
36 -1 33 -9 -2 -7 -6 -32 -9 -57 -4 -25 -9 -58 -12 -75 -11 -64 -12 -70 -13
-82 -1 -7 -10 -13 -20 -13 -11 0 -32 -10 -47 -23 -37 -32 -39 -95 -4 -132 23
-24 23 -27 11 -78 -15 -60 -109 -344 -122 -368 -4 -9 -26 -19 -47 -23 -68 -10
-97 -81 -58 -139 l23 -34 -32 -69 c-28 -57 -33 -64 -34 -41 -2 70 -102 103
-155 51 -57 -57 -17 -154 63 -154 21 0 42 5 49 12 7 7 12 9 12 6 0 -6 -80
-153 -108 -197 -97 -156 -167 -253 -192 -266 -35 -18 -60 -52 -60 -81 0 -12
-18 -44 -40 -71 -31 -40 -46 -50 -70 -51 -62 -2 -108 -55 -95 -111 8 -39 -60
-105 -101 -98 -62 10 -107 -33 -106 -102 1 -31 -6 -44 -36 -72 -30 -27 -46
-34 -80 -34 -52 -1 -82 -28 -91 -82 -6 -35 -17 -45 -144 -139 -153 -112 -462
-303 -472 -292 -1 2 -10 20 -20 40 -23 51 -77 67 -127 39 -45 -25 -58 -78 -29
-126 l19 -33 -47 -21 c-32 -15 -58 -20 -84 -17 -48 6 -79 -7 -100 -43 -13 -23
-79 -56 -132 -67 -5 -1 -37 -12 -69 -23 -33 -12 -60 -21 -62 -21 -2 0 3 12 11
26 40 77 -46 160 -124 120 -67 -35 -66 -125 3 -163 15 -8 8 -13 -45 -26 -35
-9 -82 -14 -104 -11 -25 3 -49 -1 -65 -10 -44 -27 -69 -35 -117 -42 -27 -3
-57 -8 -68 -10 -80 -16 -95 -16 -95 -1 0 24 -58 67 -92 67 -35 0 -88 -47 -88
-79 0 -15 -7 -21 -22 -22 -13 0 -34 -2 -48 -4 -49 -6 -150 -8 -156 -3 -2 3 -7
18 -10 34 -9 58 -82 92 -135 64 -18 -10 -56 -70 -44 -70 3 0 2 -8 -3 -17 -10
-17 -31 -18 -157 -8 -16 1 -40 3 -52 4 -17 1 -23 7 -23 24 -1 40 -45 77 -94
77 -28 0 -86 -45 -86 -67 0 -11 -8 -13 -35 -9 -19 3 -52 8 -72 11 -21 3 -49 8
-63 11 -14 3 -36 8 -49 10 -13 3 -35 14 -49 24 -19 15 -38 19 -81 18 -31 -1
-77 4 -103 11 l-47 13 29 28 c38 36 41 86 7 126 -31 36 -95 39 -130 5 -32 -30
-37 -50 -22 -93 l12 -36 -29 9 c-15 5 -42 13 -60 19 -69 21 -168 62 -168 69 0
13 -34 47 -52 54 -16 6 -18 21 -18 124 l0 118 30 17 c61 35 62 116 3 153 l-32
20 -1 113 c0 108 1 113 23 121 30 12 43 29 52 68 8 40 -19 91 -52 99 -22 6
-23 10 -23 125 0 117 0 119 24 125 13 3 32 21 42 39 l18 34 31 -19 c52 -32
235 -122 318 -155 65 -26 81 -37 95 -66 22 -44 76 -60 125 -37 30 14 39 14
127 -9 52 -13 104 -26 115 -28 45 -9 82 -15 115 -20 19 -3 46 -7 60 -10 14 -2
37 -4 51 -4 25 -1 26 -3 22 -46 -5 -39 -2 -47 25 -75 26 -26 36 -29 69 -25 50
6 83 43 83 93 l0 37 120 1 120 1 -5 -26 c-10 -53 38 -111 90 -111 61 0 107 68
85 126 -5 13 -6 24 -2 25 4 0 16 2 27 4 11 2 38 7 60 10 38 5 60 9 115 19 55
10 197 45 224 55 23 9 33 8 56 -9 41 -29 86 -26 121 9 16 16 29 38 29 49 0 13
11 24 33 32 17 8 70 31 115 52 46 21 85 38 87 38 2 0 47 25 100 55 54 30 99
55 101 55 2 0 4 -10 4 -23 0 -81 127 -110 165 -37 23 45 19 78 -15 112 -29 29
-30 31 -13 43 10 8 27 20 37 28 17 13 23 12 51 -4 37 -22 85 -17 110 11 25 28
34 73 20 99 -11 21 -8 27 29 61 34 32 44 37 65 29 35 -14 77 -2 101 28 21 27
27 87 10 98 -6 4 6 25 27 50 30 33 42 41 55 34 30 -16 76 -10 105 15 22 19 28
32 28 65 0 25 -7 47 -17 57 -16 16 -15 19 10 53 14 20 29 40 33 45 4 4 17 -1
29 -12 28 -26 61 -32 97 -17 47 20 60 45 54 106 -2 25 -34 57 -65 65 -24 6
-25 8 -13 23 8 9 22 32 32 51 71 140 107 216 136 288 23 56 38 82 50 82 9 0
28 12 43 26 30 31 35 81 11 118 -14 20 -13 31 6 107 28 112 27 106 51 251 l22
127 42 -6 c38 -5 46 -2 73 25 66 65 13 168 -79 155 l-25 -3 0 135 0 135 46 -6
c56 -8 86 6 104 48 14 36 6 78 -21 105 -16 17 -80 24 -114 13 -12 -4 -14 16
-15 128 0 115 2 132 15 126 54 -23 112 -6 134 40 39 82 -51 161 -133 116 -15
-7 -16 6 -16 129 l0 137 34 -12 c80 -27 148 46 116 123 -20 47 -78 64 -135 39
-13 -6 -15 12 -15 129 0 109 3 134 13 130 77 -29 121 -8 146 68 6 20 -14 66
-38 86 -20 17 -67 20 -96 5 l-25 -12 0 134 c0 74 3 134 7 134 4 0 18 -4 33
-10 38 -14 92 11 109 50 16 38 11 71 -15 99 -30 32 -63 37 -124 19 -6 -2 -10
46 -10 130 0 114 2 131 15 126 34 -15 62 -16 90 -4 71 29 71 129 0 165 -34 18
-34 18 -75 1 l-30 -13 0 137 0 137 30 -13 c16 -7 43 -10 58 -7z"/>
<path d="M8003 7294 c-76 -38 -48 -161 39 -169 30 -3 44 2 68 25 79 74 -9 194
-107 144z"/>
<path d="M8208 7084 c-24 -12 -39 -41 -43 -79 -5 -41 63 -98 107 -90 30 6 67
39 73 66 20 85 -60 145 -137 103z"/>
<path d="M7985 6865 c-56 -57 -15 -155 64 -155 40 1 62 14 79 47 49 92 -69
181 -143 108z"/>
<path d="M8223 6675 c-29 -12 -61 -56 -58 -80 6 -65 51 -102 110 -91 86 16
100 133 20 170 -39 19 -32 19 -72 1z"/>
<path d="M8013 6470 c-37 -15 -63 -66 -52 -104 10 -35 49 -71 80 -73 29 -3 76
22 89 46 39 74 -40 162 -117 131z"/>
<path d="M8419 6465 c-64 -34 -59 -134 8 -161 75 -32 144 31 122 110 -15 53
-79 78 -130 51z"/>
<path d="M8208 6254 c-24 -12 -39 -41 -43 -79 -2 -19 25 -65 46 -75 40 -22 80
-15 111 19 38 42 37 83 -1 122 -33 33 -70 37 -113 13z"/>
<path d="M8609 6241 c-69 -69 1 -180 94 -148 36 12 57 44 57 87 -1 83 -92 120
-151 61z"/>
<path d="M7993 6043 c-49 -45 -45 -121 7 -148 46 -24 82 -19 115 14 24 26 27
36 22 71 -3 25 -14 49 -28 61 -28 24 -90 25 -116 2z"/>
<path d="M8404 6037 c-23 -20 -29 -33 -29 -67 0 -96 126 -126 170 -41 45 88
-65 173 -141 108z"/>
<path d="M8224 5849 c-51 -19 -73 -82 -45 -131 40 -73 151 -55 167 27 13 71
-55 130 -122 104z"/>
<path d="M8631 5844 c-52 -22 -67 -94 -28 -139 33 -39 85 -44 124 -11 36 30
45 63 28 103 -23 54 -67 71 -124 47z"/>
<path d="M8013 5640 c-36 -15 -63 -66 -52 -102 17 -61 60 -86 115 -68 42 14
64 44 64 87 0 61 -70 107 -127 83z"/>
<path d="M8404 5624 c-47 -45 -39 -121 17 -149 56 -30 132 14 132 75 0 85 -89
129 -149 74z"/>
<path d="M8218 5433 c-24 -6 -58 -65 -53 -93 7 -37 34 -69 63 -76 15 -3 33 -8
40 -10 8 -2 29 11 48 30 44 44 45 82 5 125 -28 30 -56 37 -103 24z"/>
<path d="M8624 5428 c-49 -23 -58 -101 -18 -142 28 -27 34 -29 74 -26 59 4 94
57 78 117 -14 52 -81 77 -134 51z"/>
<path d="M7960 5180 c-82 -88 46 -206 131 -121 25 25 28 35 24 68 -10 81 -100
112 -155 53z"/>
<path d="M8376 5184 c-58 -59 -18 -154 64 -154 55 0 90 36 90 92 0 80 -96 119
-154 62z"/>
<path d="M8192 4994 c-57 -24 -66 -114 -15 -154 65 -51 159 7 146 90 -9 56
-74 89 -131 64z"/>
<path d="M8614 4996 c-55 -24 -69 -62 -49 -125 8 -25 54 -51 90 -51 34 0 85
50 85 84 0 40 -20 74 -55 91 -39 18 -32 18 -71 1z"/>
<path d="M7988 4789 c-24 -9 -58 -61 -58 -89 0 -28 32 -69 62 -79 58 -18 101
2 118 55 16 47 -1 87 -45 108 -37 18 -40 18 -77 5z"/>
<path d="M8400 4787 c-37 -18 -61 -72 -49 -107 14 -40 42 -61 85 -65 30 -3 42
2 65 25 73 73 -10 193 -101 147z"/>
<path d="M7768 4574 c-33 -17 -49 -67 -35 -107 11 -32 59 -67 85 -62 10 2 22
4 28 4 26 2 56 42 61 80 5 35 2 44 -25 71 -34 34 -70 38 -114 14z"/>
<path d="M8194 4580 c-29 -11 -54 -48 -54 -78 0 -86 112 -129 162 -61 59 81
-15 177 -108 139z"/>
<path d="M8598 4575 c-44 -24 -55 -81 -25 -127 53 -78 167 -38 167 58 0 35
-51 84 -87 84 -15 -1 -40 -7 -55 -15z"/>
<path d="M8006 4379 c-62 -17 -90 -74 -62 -128 32 -61 100 -70 148 -19 25 27
29 38 24 66 -9 59 -59 95 -110 81z"/>
<path d="M8376 4355 c-35 -38 -35 -93 -1 -128 34 -34 68 -38 107 -14 42 25 48
34 48 78 0 51 -29 80 -84 86 -39 5 -48 2 -70 -22z"/>
<path d="M7795 4173 c-76 -19 -92 -133 -24 -169 60 -31 139 11 139 73 0 39
-27 80 -61 92 -18 6 -32 10 -33 10 -1 -1 -10 -4 -21 -6z"/>
<path d="M8220 4173 c-59 -16 -87 -59 -75 -112 22 -101 168 -88 180 16 5 50
-59 108 -105 96z"/>
<path d="M8604 4161 c-62 -38 -63 -119 -3 -155 66 -39 146 12 136 87 -5 38
-37 77 -63 77 -7 0 -18 2 -26 5 -7 3 -27 -4 -44 -14z"/>
<path d="M7549 3940 c-60 -59 -24 -151 60 -154 35 -1 47 4 67 27 51 59 17 145
-60 152 -32 3 -44 -1 -67 -25z"/>
<path d="M7965 3942 c-34 -33 -40 -75 -19 -111 41 -70 140 -60 165 17 29 89
-80 160 -146 94z"/>
<path d="M8404 3960 c-55 -22 -71 -99 -31 -146 34 -39 100 -40 133 -1 63 73
-15 184 -102 147z"/>
<path d="M7757 3735 c-31 -32 -38 -64 -21 -104 11 -27 55 -59 79 -56 39 4 67
19 80 45 23 44 19 78 -14 111 -38 38 -88 40 -124 4z"/>
<path d="M8169 3729 c-65 -70 -5 -172 87 -148 107 29 80 179 -32 179 -16 0
-37 -12 -55 -31z"/>
<path d="M8004 3549 c-44 -12 -66 -42 -68 -90 -1 -33 5 -45 27 -65 61 -53 151
-14 151 64 -1 65 -51 107 -110 91z"/>
<path d="M7545 3523 c-23 -24 -26 -34 -22 -70 6 -52 26 -73 76 -80 48 -7 88
17 99 61 25 93 -85 157 -153 89z"/>
<path d="M7365 3334 c-43 -22 -56 -44 -51 -87 5 -48 29 -75 71 -83 92 -17 148
96 79 158 -27 24 -67 29 -99 12z"/>
<path d="M7783 3339 c-12 -4 -29 -19 -39 -34 -61 -94 58 -195 137 -116 70 70
-5 185 -98 150z"/>
<path d="M8182 3330 c-66 -41 -47 -148 30 -165 74 -17 136 59 102 126 -27 54
-81 70 -132 39z"/>
<path d="M7148 3122 c-34 -20 -52 -69 -39 -103 29 -76 131 -87 167 -18 17 34
18 50 2 84 -13 28 -55 55 -85 55 -10 0 -30 -8 -45 -18z"/>
<path d="M7574 3129 c-46 -17 -68 -84 -44 -130 28 -52 113 -58 150 -11 58 73
-18 175 -106 141z"/>
<path d="M7978 3125 c-15 -9 -31 -30 -38 -50 -34 -104 108 -169 163 -76 21 36
21 44 2 86 -25 51 -76 67 -127 40z"/>
<path d="M6938 2914 c-58 -31 -52 -124 11 -156 60 -30 119 3 128 72 5 34 1 43
-25 70 -34 34 -70 38 -114 14z"/>
<path d="M7339 2901 c-37 -37 -38 -79 -4 -119 29 -35 62 -44 102 -27 36 15 50
33 56 71 13 86 -91 137 -154 75z"/>
<path d="M7772 2920 c-13 -6 -30 -26 -38 -46 -14 -32 -13 -39 3 -72 46 -92
173 -60 173 43 0 37 -50 85 -87 84 -15 0 -38 -4 -51 -9z"/>
<path d="M3885 2722 c-37 -7 -75 -53 -75 -90 0 -78 101 -122 155 -67 25 24 29
38 25 85 -3 45 -57 82 -105 72z"/>
<path d="M6760 2709 c-47 -29 -58 -76 -30 -128 37 -70 151 -45 165 37 13 76
-69 131 -135 91z"/>
<path d="M7568 2712 c-36 -24 -48 -43 -48 -80 0 -47 46 -92 93 -92 71 0 115
93 70 149 -25 31 -85 43 -115 23z"/>
<path d="M6339 2707 c-23 -17 -39 -52 -39 -82 0 -39 50 -85 92 -85 85 1 123
108 57 163 -24 20 -86 22 -110 4z"/>
<path d="M7137 2700 c-34 -27 -43 -70 -23 -109 28 -54 92 -68 139 -31 31 25
41 62 27 105 -18 54 -94 73 -143 35z"/>
<path d="M4067 2504 c-56 -30 -64 -98 -17 -146 27 -26 36 -30 68 -25 47 8 82
47 82 92 0 67 -73 110 -133 79z"/>
<path d="M4490 2509 c-45 -16 -68 -74 -49 -122 12 -28 54 -57 84 -57 30 0 72
29 84 57 30 74 -42 148 -119 122z"/>
<path d="M5715 2496 c-52 -42 -45 -129 13 -155 38 -18 68 -12 101 18 40 38 43
90 6 126 -13 14 -30 25 -37 26 -7 0 -23 2 -35 3 -12 1 -34 -7 -48 -18z"/>
<path d="M6144 2508 c-28 -13 -54 -60 -52 -94 3 -37 48 -79 87 -82 75 -6 119
72 80 145 -7 12 -19 25 -28 27 -37 12 -67 13 -87 4z"/>
<path d="M6562 2509 c-30 -11 -55 -54 -54 -92 1 -42 50 -87 93 -87 63 0 110
82 79 140 -19 36 -76 54 -118 39z"/>
<path d="M6974 2505 c-93 -39 -48 -188 53 -172 36 6 72 38 74 66 4 43 -2 67
-23 88 -29 28 -65 34 -104 18z"/>
<path d="M7369 2509 c-35 -13 -64 -67 -55 -103 4 -15 18 -39 31 -52 32 -32 86
-30 121 4 69 70 -4 184 -97 151z"/>
<path d="M3862 2297 c-59 -30 -68 -120 -16 -154 57 -37 143 -4 146 57 2 46 -2
57 -26 81 -28 28 -70 34 -104 16z"/>
<path d="M4260 2283 c-28 -25 -33 -36 -32 -68 5 -124 182 -115 182 8 0 35 -41
77 -81 83 -30 5 -42 1 -69 -23z"/>
<path d="M4692 2298 c-63 -35 -68 -120 -9 -157 62 -38 138 1 140 73 2 65 -76
114 -131 84z"/>
<path d="M5085 2283 c-54 -51 -26 -144 48 -157 37 -7 70 9 90 44 26 43 21 78
-14 111 -39 36 -86 36 -124 2z"/>
<path d="M5518 2294 c-54 -29 -64 -93 -23 -138 24 -26 37 -30 84 -28 31 2 68
36 74 70 10 53 -38 113 -91 112 -9 -1 -29 -7 -44 -16z"/>
<path d="M5928 2293 c-68 -43 -48 -151 30 -166 39 -8 90 17 103 50 32 86 -57
164 -133 116z"/>
<path d="M6350 2297 c-79 -40 -59 -155 30 -170 87 -15 138 95 70 156 -33 29
-61 34 -100 14z"/>
<path d="M6759 2295 c-73 -39 -46 -160 37 -169 97 -11 141 124 55 169 -37 18
-58 19 -92 0z"/>
<path d="M7159 2281 c-38 -38 -40 -91 -4 -126 13 -14 31 -26 40 -26 8 -1 21
-2 28 -3 20 -4 66 23 77 45 22 40 15 80 -19 111 -42 38 -83 37 -122 -1z"/>
<path d="M4065 2088 c-52 -30 -62 -103 -20 -142 45 -42 103 -37 143 12 15 20
15 82 -1 103 -28 37 -83 49 -122 27z"/>
<path d="M4460 2070 c-79 -85 42 -206 127 -128 30 28 38 70 19 107 -32 60
-100 70 -146 21z"/>
<path d="M4888 2082 c-48 -29 -51 -115 -5 -145 44 -28 88 -26 122 8 40 41 32
110 -15 138 -36 21 -67 21 -102 -1z"/>
<path d="M5298 2081 c-69 -55 -29 -161 62 -163 69 -2 111 90 67 146 -31 38
-92 46 -129 17z"/>
<path d="M5725 2088 c-32 -18 -44 -40 -45 -79 0 -47 25 -78 72 -88 59 -14 107
27 108 91 0 64 -78 109 -135 76z"/>
<path d="M6127 2080 c-32 -25 -43 -72 -27 -111 7 -16 13 -29 14 -29 0 0 19 -7
41 -14 34 -12 44 -12 67 0 49 25 65 76 41 126 -25 51 -90 64 -136 28z"/>
<path d="M6555 2088 c-32 -18 -44 -40 -44 -78 -1 -70 66 -112 129 -82 58 28
68 105 19 146 -32 28 -71 33 -104 14z"/>
<path d="M6957 2080 c-58 -46 -38 -140 33 -158 32 -8 44 -6 70 9 47 29 58 76
30 128 -23 44 -90 55 -133 21z"/>
<path d="M3870 1878 c-88 -32 -74 -159 21 -174 50 -8 99 33 99 83 0 41 -13 69
-41 83 -30 17 -51 19 -79 8z"/>
<path d="M4285 1880 c-55 -21 -76 -85 -44 -137 45 -72 152 -46 166 42 10 61
-63 118 -122 95z"/>
<path d="M4705 1882 c-33 -7 -65 -50 -65 -86 0 -107 152 -129 178 -25 18 69
-41 127 -113 111z"/>
<path d="M5115 1880 c-52 -20 -74 -80 -49 -130 30 -61 119 -65 154 -7 24 39
25 49 4 93 -19 40 -70 60 -109 44z"/>
<path d="M5517 1873 c-56 -29 -64 -98 -18 -144 41 -41 102 -37 138 10 15 20
17 76 3 101 -21 40 -81 56 -123 33z"/>
<path d="M5918 1862 c-71 -64 -18 -175 76 -158 100 19 91 163 -11 181 -26 4
-39 0 -65 -23z"/>
<path d="M6347 1874 c-56 -30 -64 -98 -18 -145 60 -60 151 -20 151 67 0 68
-71 110 -133 78z"/>
<path d="M4471 1659 c-17 -10 -31 -22 -32 -26 0 -5 -3 -19 -5 -33 -11 -59 41
-112 101 -103 77 11 106 101 50 155 -29 28 -75 31 -114 7z"/>
<path d="M4879 1651 c-74 -74 1 -186 98 -146 85 36 64 159 -30 170 -33 4 -43
1 -68 -24z"/>
<path d="M5303 1661 c-59 -37 -54 -124 8 -156 87 -46 177 71 108 140 -34 35
-77 40 -116 16z"/>
<path d="M5729 1669 c-48 -18 -67 -81 -38 -128 55 -91 184 -40 164 65 -10 54
-69 84 -126 63z"/>
<path d="M4979 6696 c-2 -2 -26 -6 -54 -9 -357 -38 -746 -242 -978 -512 -102
-118 -106 -123 -154 -198 -97 -151 -199 -398 -218 -527 -4 -25 -8 -47 -11 -51
-9 -16 -19 -155 -19 -279 0 -123 6 -215 19 -280 23 -111 59 -240 77 -272 5
-10 9 -23 9 -29 0 -19 96 -205 145 -281 217 -334 556 -577 942 -672 54 -14
121 -27 148 -31 28 -3 64 -8 80 -11 39 -5 284 -6 310 0 11 2 45 7 75 11 281
37 593 179 809 370 59 53 169 168 208 220 21 28 41 52 46 53 4 2 7 9 7 15 0 6
9 20 19 31 48 51 187 355 206 449 2 10 7 27 10 37 8 25 14 57 20 104 3 21 7
41 9 45 8 13 17 145 18 239 0 316 -94 621 -277 897 -119 179 -355 390 -557
498 -148 79 -376 154 -523 172 -55 7 -361 16 -366 11z"/>
</g>
</svg>
